<?xml version="1.0" encoding="utf-8"?>
<!-- Generator: Adobe Illustrator 16.0.3, SVG Export Plug-In . SVG Version: 6.00 Build 0)  -->
<!DOCTYPE svg PUBLIC "-//W3C//DTD SVG 1.1//EN" "http://www.w3.org/Graphics/SVG/1.1/DTD/svg11.dtd">
<svg version="1.1" xmlns="http://www.w3.org/2000/svg" xmlns:xlink="http://www.w3.org/1999/xlink" x="0px" y="0px" width="404px"
	 height="249px" viewBox="168.5 177.5 404 249" enable-background="new 168.5 177.5 404 249" xml:space="preserve">
<g id="Capa_1" xmlns:v="https://svgstorm.com" display="none">
	<g display="inline">
		<path fill="none" stroke="#FDFDFD" stroke-width="0.3" d="M300,214c23.18,1.26,46.75,0.45,70,0s47.859,2.38,71,0
			c8.68-1.92,18.06-5.07,26-9c12.6-9.01,29.909-17.2,33.67-34.33c3.76-17.13-8.23-35.48-21.67-44.67
			c5.199-8.79,6.699-21.84-3.311-28.69c-10-6.86-20.53,4.4-28.99-2.01c-8.46-6.4-16.5-9.19-26.01-12.99
			c-9.5-3.81-20.83-6.9-30.689-8.31c-11.471-1.18-26.86-1.81-37.99,0.01c-11.13,1.81-21.91,4.15-31.79,8.21
			c-9.87,4.07-17.51,6.75-25.97,13.03c-8.471,6.27-20.181-4.79-29.5,2.5c-9.32,7.29-8.76,19.27-1.75,27.25
			c-17.4,9.96-33.71,40.91-20.25,58.25C256.21,200.58,278.9,212.86,300,214 M315,147c22.39,2.8,16.869,39.32-6,35
			C286.13,177.68,293.05,144.26,315,147 M432,147c22.17,2.77,16.739,39.36-6,35C403.26,177.64,409.88,144.24,432,147z"/>
	</g>
	<g display="inline">
		<path fill="none" stroke="#222222" stroke-width="0.3" d="M315,147c-21.95-2.74-28.87,30.68-6,35
			C331.869,186.32,337.39,149.8,315,147z"/>
	</g>
	<g display="inline">
		<path fill="none" stroke="#262626" stroke-width="0.3" d="M432,147c-22.12-2.76-28.74,30.64-6,35
			C448.74,186.36,454.17,149.77,432,147z"/>
	</g>
	<g display="inline">
		<path fill="none" stroke="#8F8F8F" stroke-width="0.3" d="M441,214c-23.141,2.38-47.75-0.45-71,0s-46.82,1.26-70,0
			c21.659,3.52,48.42,1.42,71,1C393.579,214.58,419.6,218.74,441,214z"/>
	</g>
	<g display="inline">
		<path fill="none" stroke="#F9F9F9" stroke-width="0.3" d="M360,228c6.67,0,13.329,0,20,0c18.689,0.04,36.359-4.07,54-8
			c-41.19-1.67-85.73-1.67-127,0C324.5,223.91,341.47,228,360,228z"/>
	</g>
	<g display="inline">
		<path fill="none" stroke="#878787" stroke-width="0.3" d="M380,228c-6.671,0-13.33,0-20,0C366.23,228.6,373.71,228.61,380,228z"/>
	</g>
	<g display="inline">
		<path fill="none" stroke="#F9F9F9" stroke-width="0.3" d="M470,235c-28.54-5.91-37.91,34.25-11.07,42.07
			C485.76,284.9,496.14,240.41,470,235z"/>
	</g>
	<g display="inline">
		<path fill="none" stroke="#FAFAFA" stroke-width="0.3" d="M293,237c-28.61-5.93-37.891,34.26-11.021,42.02
			C308.85,286.79,319.1,242.4,293,237z"/>
	</g>
	<g display="inline">
		<path fill="none" stroke="#969696" stroke-width="0.3" d="M640,318c5.67,0,11.329,0,17,0C655.64,316.05,641.409,315.99,640,318z"
			/>
	</g>
	<g display="inline">
		<path fill="none" stroke="#FCFCFC" stroke-width="0.3" d="M640,405c5.67,0,11.329,0,17,0c1.8-13.471-2.87-29.01,1.079-41.92
			c3.94-12.91,22.07-9.641,22.921,2.92c2.09,11.65,1,25.57,1,38c5.619-0.51,11.369,0.38,17,0c2.17-3.1-0.891-11.141,0-15
			c0.89-3.859,0-9.939,0-14c7.8-25.55-22.641-46.48-42-28c-0.83-4.311,1.1-10.92,0-15c-1.101-4.08,2.26-10.779,0-14
			c-5.671,0-11.33,0-17,0c-2.771,3.96,1.319,13.061,0,18c-1.32,4.939,0.569,11.561,0,17c-0.57,5.439,0.279,12.391,0,18
			c-0.28,5.609,0.149,11.359,0,17C639.85,393.641,640.11,399.36,640,405z"/>
	</g>
	<g display="inline">
		<path fill="none" stroke="#F9F9F9" stroke-width="0.3" d="M125,343c-18.91-39.97-84.141-25.51-85,19c-0.86,44.51,64.5,61.26,85,21
			c-10.25-7.641-18.13-5.12-26.3,2.7c-8.181,7.81-22.61,3.96-30.45-1.95s-12.36-19.26-9.03-28.529C62.56,345.96,70.82,337.65,81,336
			c10.18-1.65,22.12,3.88,27,13C113.78,347.27,119.07,344.05,125,343z"/>
	</g>
	<g display="inline">
		<path fill="none" stroke="#8F8F8F" stroke-width="0.3" d="M415,321c22.329,0,44.67,0,67,0c-2.641-3.779-16.95-0.38-22-1
			c-5.051-0.62-17.961-0.641-23,0C431.96,320.641,417.67,317.189,415,321z"/>
	</g>
	<g display="inline">
		<path fill="none" stroke="#FDFDFD" stroke-width="0.3" d="M439,337c4.319,4.32-0.811,14.971,1,21c1.81,6.029-2,16.93,0,23
			s-3.53,17.95,0,23c5.01,2.32,12.17,0.34,18,1c0-23,0-46,0-69c8,0,16,0,24,0c-1.761-3.77,2.35-11.641,0-15c-22.33,0-44.671,0-67,0
			c0,5,0,10,0,15C421.05,338.439,434.31,332.311,439,337z"/>
	</g>
	<g display="inline">
		<path fill="none" stroke="#858585" stroke-width="0.3" d="M440,404c-3.53-5.05,2-16.93,0-23s1.81-16.971,0-23
			c-1.811-6.029,3.319-16.68-1-21c3.529,5.05-2,16.93,0,23s-1.811,16.971,0,23C440.81,389.029,435.68,399.68,440,404z"/>
	</g>
	<g display="inline">
		<path fill="none" stroke="#F9F9F9" stroke-width="0.3" d="M173,340c-25.49-3.641-47.94,25.029-35.771,47.77
			s42.79,24.48,58.521,4.98C211.48,373.26,197.56,343.51,173,340 M169,355c22.029,1.41,20.689,37.09-2,36
			C144.31,389.9,147.33,353.609,169,355z"/>
	</g>
	<g display="inline">
		<path fill="none" stroke="#FBFBFB" stroke-width="0.3" d="M234,342c-5.67,0-11.33,0-17,0c0,21,0,42,0,63c5.67,0,11.33,0,17,0
			c2.859-13.15-8.48-49.99,13-50c21.479-0.01,8.319,37.21,12,50c5.67,0,11.33,0,17,0c1.88-13.45-2.98-29.07,1.08-41.92
			c4.05-12.859,22.05-9.83,22.92,2.92c2.09,11.65,1,25.57,1,38c5.06-0.46,11.729-0.48,16,1c1.5-12.74,1.55-29.41,0.779-42.779
			c-0.77-13.371-9.59-18.07-21.109-21.891c-11.521-3.82-21.96,11.02-30.97,3.97c-9.011-7.05-23.2-4.271-31.7,2.7
			C233.37,346.02,234.83,342.76,234,342z"/>
	</g>
	<g display="inline">
		<path fill="none" stroke="#FAFAFA" stroke-width="0.3" d="M353,342c-5.671,0-11.33,0-17,0c0,27.67,0,55.33,0,83
			c5.67,0,11.329,0,17,0c0-8.67,0-17.33,0-26c21.47,18.29,50.829-0.39,51-26c0.17-25.609-29.57-44.109-50-26
			C351.64,346.689,354,342.91,353,342 M371,355c22.159,2.33,19.829,37.859-3,36C345.17,389.141,348.57,352.641,371,355z"/>
	</g>
	<g display="inline">
		<path fill="none" stroke="#F8F8F8" stroke-width="0.3" d="M551,380c7.869-39.811-50.971-55.43-65.681-18.68
			C470.61,398.08,526.579,424.51,547,391c-5.04-0.59-10.561-10.07-15.25-5.25c-4.681,4.83-11.851,6.08-18.08,4.58
			c-6.221-1.51-11.4-3.46-12.67-10.33C517.67,380,534.329,380,551,380 M532,366c-0.03,2.939-10.011,2.67-14,2
			c-3.99-0.67-15.061,2.279-17-1c-1.58-2.67,5.189-7.779,7.699-9.3c2.511-1.521,11.11-2.7,14.521-0.921
			C526.63,358.561,532.05,361.26,532,366z"/>
	</g>
	<g display="inline">
		<path fill="none" stroke="#F8F8F8" stroke-width="0.3" d="M626,360c3.039-3.15-5.53-10.609-8.771-13.23
			c-3.24-2.619-12.77-6.25-17.229-6.77c-27.83-4.04-47.25,28.74-32.771,50.77C581.71,412.8,617.18,411.5,627,387
			c-5.271-0.75-9.91-3.689-15-5c-3.91,8.54-15.11,11.21-23.301,7.3c-8.189-3.899-11.42-15.35-8.47-23.069
			c2.95-7.721,14.8-14.971,22.69-9.15C610.82,362.891,616.38,365.16,626,360z"/>
	</g>
	<g display="inline">
		<path fill="none" stroke="#8D8D8D" stroke-width="0.3" d="M217,342c5.67,0,11.33,0,17,0C232.17,340.32,218.62,339.689,217,342z"/>
	</g>
	<g display="inline">
		<path fill="none" stroke="#8E8E8E" stroke-width="0.3" d="M336,342c5.67,0,11.329,0,17,0C351.17,340.32,337.619,339.689,336,342z"
			/>
	</g>
	<g display="inline">
		<path fill="none" stroke="#161616" stroke-width="0.3" d="M169,355c-21.67-1.391-24.69,34.9-2,36
			C189.69,392.09,191.03,356.41,169,355z"/>
	</g>
	<g display="inline">
		<path fill="none" stroke="#1E1E1E" stroke-width="0.3" d="M371,355c-22.431-2.359-25.83,34.141-3,36
			C390.829,392.859,393.159,357.33,371,355z"/>
	</g>
	<g display="inline">
		<path fill="none" stroke="#232323" stroke-width="0.3" d="M501,367c4.3-0.75,12.05,0.99,16,0c3.949-0.99,12.989,2.37,15-1
			c0.05-4.74-5.37-7.439-8.78-9.221c-3.41-1.779-12.01-0.6-14.521,0.921C506.19,359.221,499.42,364.33,501,367z"/>
	</g>
	<g display="inline">
		<path fill="none" stroke="#8D8D8D" stroke-width="0.3" d="M301,405c-0.04,0,0-1,0-1c0-12.43,1.09-26.35-1-38
			c0.39,5.74-1,14.6,0,20S297.25,401.39,301,405z"/>
	</g>
	<g display="inline">
		<path fill="none" stroke="#919191" stroke-width="0.3" d="M501,367c1.939,3.279,13.01,0.33,17,1c3.989,0.67,13.97,0.939,14-2
			c-2.011,3.37-11.051,0.01-15,1C513.05,367.99,505.3,366.25,501,367z"/>
	</g>
	<g display="inline">
		<path fill="none" stroke="#969696" stroke-width="0.3" d="M682,405c-0.04,0,0-1,0-1c0-12.43,1.09-26.35-1-38
			c0.39,5.74-1,14.6,0,20S678.25,401.39,682,405z"/>
	</g>
	<g display="inline">
		<path fill="none" stroke="#C6C6C6" stroke-width="0.3" d="M301,405c2.899,0.26,13.739,1.58,16,0c-4.271-1.48-10.94-1.46-16-1
			C301,404,300.96,405,301,405z"/>
	</g>
	<g display="inline">
		<path fill="none" stroke="#C7C7C7" stroke-width="0.3" d="M682,405c3.14,0.28,15.27,1.48,17-1c-5.631,0.38-11.381-0.51-17,0
			C682,404,681.96,405,682,405z"/>
	</g>
	<g display="inline">
		<path fill="none" stroke="#F6F6F6" stroke-width="0.3" d="M106,465c3.59-0.45,7.439,0.6,11,0c16.6-4.64,4.25-28.11-11-21
			C108.47,449.27,102.71,460.3,106,465 M110,462c0-5,0-10,0-15C123.78,443.34,123.92,466.01,110,462z"/>
	</g>
	<g display="inline">
		<path fill="none" stroke="#F7F7F7" stroke-width="0.3" d="M144,465c4.67,0,9.33,0,14,0c0-1,0-2,0-3c-4.88,0.12-12.391,1.44-10-6
			c3.149-0.86,10.66,2.3,10-3c-3.33,0-6.67,0-10,0c0.569-1.31-0.75-3.81,0-5c1.649-2.62,7.399-0.1,10-1c0-1,0-2,0-3
			c-4.67,0-9.33,0-14,0C146.47,449.27,140.71,460.3,144,465z"/>
	</g>
	<g display="inline">
		<path fill="none" stroke="#EAEAEA" stroke-width="0.3" d="M185,458c-3.73-4.5-2.12-15.37-10-14c3.319,3.75,4.17,21.65,9.97,21.97
			c5.8,0.32,6.79-18.52,10.03-21.97C187.06,442.59,188.92,453.94,185,458z"/>
	</g>
	<g display="inline">
		<path fill="none" stroke="#FCFCFC" stroke-width="0.3" d="M213,465c4.67,0,9.33,0,14,0c0-1,0-2,0-3c-4.88,0.12-12.391,1.44-10-6
			c3.149-0.86,10.66,2.3,10-3c-3.33,0-6.67,0-10,0c0.569-1.31-0.75-3.81,0-5c1.649-2.62,7.399-0.1,10-1c0-1,0-2,0-3
			c-4.67,0-9.33,0-14,0C215.47,449.27,209.71,460.3,213,465z"/>
	</g>
	<g display="inline">
		<path fill="none" stroke="#FDFDFD" stroke-width="0.3" d="M246,465c4.67,0,9.33,0,14,0c0.149-0.31,0.149-2.69,0-3
			c-2.78-0.88-8.17,1.61-10-1c-1.61-5.18,3.81-17.3-4-17C248.47,449.27,242.71,460.3,246,465z"/>
	</g>
	<g display="inline">
		<path fill="none" stroke="#EBEBEB" stroke-width="0.3" d="M292,444c-14.73-4.47-22.15,15.56-8.221,21.22
			C297.71,470.88,304.89,447.91,292,444 M291,448c7.81,3.05,0.939,18.49-7.07,13.07C275.92,455.66,282.59,444.72,291,448z"/>
	</g>
	<g display="inline">
		<path fill="none" stroke="#8B8B8B" stroke-width="0.3" d="M327,458c-4.811,1.62-6.62,0.94-7,7c-4.5-4.1-0.79-14.48-2-21
			c-2.561,5.54-0.021,10.33-1,17c-0.971,6.66,7.71,5.32,5-2C323.97,459.52,325.64,458.66,327,458z"/>
	</g>
	<g display="inline">
		<path fill="none" stroke="#ECECEC" stroke-width="0.3" d="M327,458c12.579-6.09-0.48-19.96-9-14c1.21,6.52-2.5,16.9,2,21
			C320.38,458.94,322.19,459.62,327,458 M322,455c-1.021-4.06,0.17-10.35,4.689-6.69C331.22,451.96,325.9,456.56,322,455z"/>
	</g>
	<g display="inline">
		<path fill="none" stroke="#8B8B8B" stroke-width="0.3" d="M365,465c-4.671,0-9.33,0-14,0c0-7,0-14,0-21
			c-3.69,2.59,0.199,14.66-0.971,18.97C348.85,467.28,363.93,467.2,365,465z"/>
	</g>
	<g display="inline">
		<path fill="none" stroke="#F6F6F6" stroke-width="0.3" d="M365,465c0-1,0-2,0-3c-4.881,0.12-12.391,1.44-10-6
			c3.149-0.86,10.659,2.3,10-3c-3.33,0-6.671,0-10,0c0.569-1.31-0.75-3.81,0-5c1.649-2.62,7.399-0.1,10-1c0-1,0-2,0-3
			c-3.521,1.64-10.87-2.19-14,0c0,7,0,14,0,21C355.67,465,360.329,465,365,465z"/>
	</g>
	<g display="inline">
		<path fill="none" stroke="#8B8B8B" stroke-width="0.3" d="M388,457c-2.271,1.37-0.341,5.78-1,8c-6.49-2.3-1.36-14.66-3-21
			c-4.011,2.8,0.09,12.5-0.99,17.99S392.39,464.69,388,457z"/>
	</g>
	<g display="inline">
		<path fill="none" stroke="#F2F2F2" stroke-width="0.3" d="M388,457c7.189-1.28,4.079,10.85,11,9c0.229-4.23-2.86-7.34-4-11
			c9.67-5.03-4.101-15.83-11-11c1.64,6.34-3.49,18.7,3,21C387.659,462.78,385.73,458.37,388,457 M392,453
			c-1.381,0.92-3.011,1.31-5,1c0.52-2.19-1.141-5.62,1-7C391.38,444.84,396.079,450.27,392,453z"/>
	</g>
	<g display="inline">
		<path fill="none" stroke="#8B8B8B" stroke-width="0.3" d="M446,465c-1.33,0-2.671,0-4,0c0-7,0-14,0-21
			c-3.48,2.01,0.779,10.97-1,14C439.22,461.03,442.93,469.66,446,465z"/>
	</g>
	<g display="inline">
		<path fill="none" stroke="#ECECEC" stroke-width="0.3" d="M446,465c-1.37-6.48,0.779-11.07,8-9c0.659,3.56-2.28,11.55,4,10
			c-1.95-6.61,4.329-20.99-4-22c1.609,6.44-1.561,9.67-8,8c0.289-2.35,0.829-10.78-4-8c0,7,0,14,0,21
			C443.329,465,444.67,465,446,465z"/>
	</g>
	<g display="inline">
		<path fill="none" stroke="#F8F8F8" stroke-width="0.3" d="M478,465c4.67,0,9.329,0,14,0c0-1,0-2,0-3c-4.881,0.12-12.391,1.44-10-6
			c3.149-0.86,10.659,2.3,10-3c-3.33,0-6.671,0-10,0c0.569-1.31-0.75-3.81,0-5c1.649-2.62,7.399-0.1,10-1c0-1,0-2,0-3
			c-4.671,0-9.33,0-14,0C480.47,449.27,474.71,460.3,478,465z"/>
	</g>
	<g display="inline">
		<path fill="none" stroke="#EAEAEA" stroke-width="0.3" d="M523,444c-8.811,0.92-10.021,14.87-14,22c4.01,1.11,5.829-1.48,6-5
			c3.67,0,7.329,0,11,0c0.1,3.11,2.569,6.02,6,5C530.619,458.09,524.28,451.87,523,444 M524,458c-7.131,1.71-7.07-2.03-4-7
			C522.39,452.4,523.4,455.44,524,458z"/>
	</g>
	<g display="inline">
		<path fill="none" stroke="#EBEBEB" stroke-width="0.3" d="M554,458c-3.021-4.81-1.73-15.63-10-14c5,6.65,3.569,20.74,13,22
			c0.96-7.76,6.239-14.2,7-22C555.97,443.1,558.94,454.48,554,458z"/>
	</g>
	<g display="inline">
		<path fill="none" stroke="#F1F1F1" stroke-width="0.3" d="M582,465c4.67,0,9.329,0,14,0c0-1,0-2,0-3c-4.82,0.41-11.221,0.86-9-6
			c3.329,0,6.67,0,10,0c-0.311-0.85,0.39-2.19,0-3c-3.311-0.22-6.69,0.3-10,0c-5.29-5.15,5.42-7.59,9-6c0-1,0-2,0-3
			c-4.671,0-9.33,0-14,0C584.47,449.27,578.71,460.3,582,465z"/>
	</g>
	<g display="inline">
		<path fill="none" stroke="#919191" stroke-width="0.3" d="M587,453c-0.04,0,0-1,0-1c0-1.33,0-2.67,0-4c2,1.75,13.77-1.03,9-4
			c0,1,0,2,0,3C592.42,445.41,581.71,447.85,587,453z"/>
	</g>
	<g display="inline">
		<path fill="none" stroke="#EFEFEF" stroke-width="0.3" d="M628,457c-3.61-4.74-5.431-14.15-13-13c1.949,6.61-4.33,20.99,4,22
			c0.59-4.51-1.221-10.24,1-14c4.479,4.38,5.76,14.08,13,14c-1.95-6.61,4.329-20.99-4-22C628.42,448.18,630.21,453.58,628,457z"/>
	</g>
	<g display="inline">
		<path fill="none" stroke="#161616" stroke-width="0.3" d="M110,462c13.92,4.01,13.779-18.66,0-15C110,452,110,457,110,462z"/>
	</g>
	<g display="inline">
		<path fill="none" stroke="#898989" stroke-width="0.3" d="M148,448c2.33-0.94,8.7,1.67,10-1C155.4,447.9,149.65,445.38,148,448z"
			/>
	</g>
	<g display="inline">
		<path fill="none" stroke="#8A8A8A" stroke-width="0.3" d="M217,448c2.33-0.94,8.7,1.67,10-1C224.4,447.9,218.65,445.38,217,448z"
			/>
	</g>
	<g display="inline">
		<path fill="none" stroke="#202020" stroke-width="0.3" d="M322,455c3.899,1.56,9.22-3.04,4.689-6.69
			C322.17,444.65,320.98,450.94,322,455z"/>
	</g>
	<g display="inline">
		<path fill="none" stroke="#8B8B8B" stroke-width="0.3" d="M355,448c2.329-0.94,8.699,1.67,10-1C362.4,447.9,356.65,445.38,355,448
			z"/>
	</g>
	<g display="inline">
		<path fill="none" stroke="#797979" stroke-width="0.3" d="M392,453c-1.25,0.33-2.73-0.25-4,0c0-2,0-4,0-6
			c-2.141,1.38-0.48,4.81-1,7C388.99,454.31,390.619,453.92,392,453z"/>
	</g>
	<g display="inline">
		<path fill="none" stroke="#1D1D1D" stroke-width="0.3" d="M392,453c4.079-2.73-0.62-8.16-4-6c0,2,0,4,0,6
			C389.27,452.75,390.75,453.33,392,453z"/>
	</g>
	<g display="inline">
		<path fill="none" stroke="#909090" stroke-width="0.3" d="M482,448c2.329-0.94,8.699,1.67,10-1C489.4,447.9,483.65,445.38,482,448
			z"/>
	</g>
	<g display="inline">
		<path fill="none" stroke="#1B1B1B" stroke-width="0.3" d="M291,448c-8.41-3.28-15.08,7.66-7.07,13.07
			C291.94,466.49,298.81,451.05,291,448z"/>
	</g>
	<g display="inline">
		<path fill="none" stroke="#373737" stroke-width="0.3" d="M524,458c-0.601-2.56-1.61-5.6-4-7
			C516.93,455.97,516.869,459.71,524,458z"/>
	</g>
	<g display="inline">
		<path fill="none" stroke="#555555" stroke-width="0.3" d="M587,453c3.31,0.3,6.689-0.22,10,0c-0.95-1.95-7.931-1.19-10-1
			C587,452,586.96,453,587,453z"/>
	</g>
	<g display="inline">
		<path fill="none" stroke="#898989" stroke-width="0.3" d="M260,462c-1.351-2.74-7.58-0.02-10-1
			C251.83,463.61,257.22,461.12,260,462z"/>
	</g>
	<g display="inline">
		<path fill="none" stroke="#8C8C8C" stroke-width="0.3" d="M582,465c2.449,3.5,18.609-0.13,14-3c0,1,0,2,0,3
			C591.329,465,586.67,465,582,465z"/>
	</g>
	<g display="inline">
		<path fill="none" stroke="#878787" stroke-width="0.3" d="M117,465c-3.561,0.6-7.41-0.45-11,0
			C107.85,467.64,114.83,465.66,117,465z"/>
	</g>
	<g display="inline">
		<path fill="none" stroke="#878787" stroke-width="0.3" d="M158,465c-4.67,0-9.33,0-14,0C145.16,466.66,157.01,467.04,158,465z"/>
	</g>
	<g display="inline">
		<path fill="none" stroke="#878787" stroke-width="0.3" d="M227,465c-4.67,0-9.33,0-14,0C214.16,466.66,226.01,467.04,227,465z"/>
	</g>
	<g display="inline">
		<path fill="none" stroke="#888888" stroke-width="0.3" d="M260,465c-4.67,0-9.33,0-14,0C247.17,466.67,259,467.04,260,465z"/>
	</g>
	<g display="inline">
		<path fill="none" stroke="#8B8B8B" stroke-width="0.3" d="M492,465c-4.671,0-9.33,0-14,0C479.159,466.66,491.01,467.04,492,465z"
			/>
	</g>
	<g display="inline">
		<path fill="#FDFDFD" d="M300,214c23.18,1.26,46.75,0.45,70,0s47.859,2.38,71,0c8.68-1.92,18.06-5.07,26-9
			c12.6-9.01,29.909-17.2,33.67-34.33c3.76-17.13-8.23-35.48-21.67-44.67c5.199-8.79,6.699-21.84-3.311-28.69
			c-10-6.86-20.53,4.4-28.99-2.01c-8.46-6.4-16.5-9.19-26.01-12.99c-9.5-3.81-20.83-6.9-30.689-8.31
			c-11.471-1.18-26.86-1.81-37.99,0.01c-11.13,1.81-21.91,4.15-31.79,8.21c-9.87,4.07-17.51,6.75-25.97,13.03
			c-8.471,6.27-20.181-4.79-29.5,2.5c-9.32,7.29-8.76,19.27-1.75,27.25c-17.4,9.96-33.71,40.91-20.25,58.25
			C256.21,200.58,278.9,212.86,300,214 M315,147c22.39,2.8,16.869,39.32-6,35C286.13,177.68,293.05,144.26,315,147 M432,147
			c22.17,2.77,16.739,39.36-6,35C403.26,177.64,409.88,144.24,432,147z"/>
	</g>
	<g display="inline">
		<path fill="#8F8F8F" d="M441,214c-23.141,2.38-47.75-0.45-71,0s-46.82,1.26-70,0c21.659,3.52,48.42,1.42,71,1
			C393.579,214.58,419.6,218.74,441,214z"/>
	</g>
	<g display="inline">
		<path fill="#F9F9F9" d="M360,228c6.67,0,13.329,0,20,0c18.689,0.04,36.359-4.07,54-8c-41.19-1.67-85.73-1.67-127,0
			C324.5,223.91,341.47,228,360,228z"/>
	</g>
	<g display="inline">
		<path fill="#878787" d="M380,228c-6.671,0-13.33,0-20,0C366.23,228.6,373.71,228.61,380,228z"/>
	</g>
	<g display="inline">
		<path fill="#F9F9F9" d="M470,235c-28.54-5.91-37.91,34.25-11.07,42.07C485.76,284.9,496.14,240.41,470,235z"/>
	</g>
	<g display="inline">
		<path fill="#FAFAFA" d="M293,237c-28.61-5.93-37.891,34.26-11.021,42.02C308.85,286.79,319.1,242.4,293,237z"/>
	</g>
	<g display="inline">
		<path fill="#969696" d="M640,318c5.67,0,11.329,0,17,0C655.64,316.05,641.409,315.99,640,318z"/>
	</g>
	<g display="inline">
		<path fill="#FCFCFC" d="M640,405c5.67,0,11.329,0,17,0c1.8-13.471-2.87-29.01,1.079-41.92c3.94-12.91,22.07-9.641,22.921,2.92
			c2.09,11.65,1,25.57,1,38c5.619-0.51,11.369,0.38,17,0c2.17-3.1-0.891-11.141,0-15c0.89-3.859,0-9.939,0-14
			c7.8-25.55-22.641-46.48-42-28c-0.83-4.311,1.1-10.92,0-15c-1.101-4.08,2.26-10.779,0-14c-5.671,0-11.33,0-17,0
			c-2.771,3.96,1.319,13.061,0,18c-1.32,4.939,0.569,11.561,0,17c-0.57,5.439,0.279,12.391,0,18c-0.28,5.609,0.149,11.359,0,17
			C639.85,393.641,640.11,399.36,640,405z"/>
	</g>
	<g display="inline">
		<path fill="#F9F9F9" d="M125,343c-18.91-39.97-84.141-25.51-85,19c-0.86,44.51,64.5,61.26,85,21c-10.25-7.641-18.13-5.12-26.3,2.7
			c-8.181,7.81-22.61,3.96-30.45-1.95s-12.36-19.26-9.03-28.529C62.56,345.96,70.82,337.65,81,336c10.18-1.65,22.12,3.88,27,13
			C113.78,347.27,119.07,344.05,125,343z"/>
	</g>
	<g display="inline">
		<path fill="#8F8F8F" d="M415,321c22.329,0,44.67,0,67,0c-2.641-3.779-16.95-0.38-22-1c-5.051-0.62-17.961-0.641-23,0
			C431.96,320.641,417.67,317.189,415,321z"/>
	</g>
	<g display="inline">
		<path fill="#FDFDFD" d="M439,337c4.319,4.32-0.811,14.971,1,21c1.81,6.029-2,16.93,0,23s-3.53,17.95,0,23
			c5.01,2.32,12.17,0.34,18,1c0-23,0-46,0-69c8,0,16,0,24,0c-1.761-3.77,2.35-11.641,0-15c-22.33,0-44.671,0-67,0c0,5,0,10,0,15
			C421.05,338.439,434.31,332.311,439,337z"/>
	</g>
	<g display="inline">
		<path fill="#858585" d="M440,404c-3.53-5.05,2-16.93,0-23s1.81-16.971,0-23c-1.811-6.029,3.319-16.68-1-21
			c3.529,5.05-2,16.93,0,23s-1.811,16.971,0,23C440.81,389.029,435.68,399.68,440,404z"/>
	</g>
	<g display="inline">
		<path fill="#F9F9F9" d="M173,340c-25.49-3.641-47.94,25.029-35.771,47.77s42.79,24.48,58.521,4.98
			C211.48,373.26,197.56,343.51,173,340 M169,355c22.029,1.41,20.689,37.09-2,36C144.31,389.9,147.33,353.609,169,355z"/>
	</g>
	<g display="inline">
		<path fill="#FBFBFB" d="M234,342c-5.67,0-11.33,0-17,0c0,21,0,42,0,63c5.67,0,11.33,0,17,0c2.859-13.15-8.48-49.99,13-50
			c21.479-0.01,8.319,37.21,12,50c5.67,0,11.33,0,17,0c1.88-13.45-2.98-29.07,1.08-41.92c4.05-12.859,22.05-9.83,22.92,2.92
			c2.09,11.65,1,25.57,1,38c5.06-0.46,11.729-0.48,16,1c1.5-12.74,1.55-29.41,0.779-42.779c-0.77-13.371-9.59-18.07-21.109-21.891
			c-11.521-3.82-21.96,11.02-30.97,3.97c-9.011-7.05-23.2-4.271-31.7,2.7C233.37,346.02,234.83,342.76,234,342z"/>
	</g>
	<g display="inline">
		<path fill="#FAFAFA" d="M353,342c-5.671,0-11.33,0-17,0c0,27.67,0,55.33,0,83c5.67,0,11.329,0,17,0c0-8.67,0-17.33,0-26
			c21.47,18.29,50.829-0.39,51-26c0.17-25.609-29.57-44.109-50-26C351.64,346.689,354,342.91,353,342 M371,355
			c22.159,2.33,19.829,37.859-3,36C345.17,389.141,348.57,352.641,371,355z"/>
	</g>
	<g display="inline">
		<path fill="#F8F8F8" d="M551,380c7.869-39.811-50.971-55.43-65.681-18.68C470.61,398.08,526.579,424.51,547,391
			c-5.04-0.59-10.561-10.07-15.25-5.25c-4.681,4.83-11.851,6.08-18.08,4.58c-6.221-1.51-11.4-3.46-12.67-10.33
			C517.67,380,534.329,380,551,380 M532,366c-0.03,2.939-10.011,2.67-14,2c-3.99-0.67-15.061,2.279-17-1
			c-1.58-2.67,5.189-7.779,7.699-9.3c2.511-1.521,11.11-2.7,14.521-0.921C526.63,358.561,532.05,361.26,532,366z"/>
	</g>
	<g display="inline">
		<path fill="#F8F8F8" d="M626,360c3.039-3.15-5.53-10.609-8.771-13.23c-3.24-2.619-12.77-6.25-17.229-6.77
			c-27.83-4.04-47.25,28.74-32.771,50.77C581.71,412.8,617.18,411.5,627,387c-5.271-0.75-9.91-3.689-15-5
			c-3.91,8.54-15.11,11.21-23.301,7.3c-8.189-3.899-11.42-15.35-8.47-23.069c2.95-7.721,14.8-14.971,22.69-9.15
			C610.82,362.891,616.38,365.16,626,360z"/>
	</g>
	<g display="inline">
		<path fill="#8D8D8D" d="M217,342c5.67,0,11.33,0,17,0C232.17,340.32,218.62,339.689,217,342z"/>
	</g>
	<g display="inline">
		<path fill="#8E8E8E" d="M336,342c5.67,0,11.329,0,17,0C351.17,340.32,337.619,339.689,336,342z"/>
	</g>
	<g display="inline">
		<path fill="#161616" d="M169,355c-21.67-1.391-24.69,34.9-2,36C189.69,392.09,191.03,356.41,169,355z"/>
	</g>
	<g display="inline">
		<path fill="#1E1E1E" d="M371,355c-22.431-2.359-25.83,34.141-3,36C390.829,392.859,393.159,357.33,371,355z"/>
	</g>
	<g display="inline">
		<path fill="#232323" d="M501,367c4.3-0.75,12.05,0.99,16,0c3.949-0.99,12.989,2.37,15-1c0.05-4.74-5.37-7.439-8.78-9.221
			c-3.41-1.779-12.01-0.6-14.521,0.921C506.19,359.221,499.42,364.33,501,367z"/>
	</g>
	<g display="inline">
		<path fill="#8D8D8D" d="M301,405c-0.04,0,0-1,0-1c0-12.43,1.09-26.35-1-38c0.39,5.74-1,14.6,0,20S297.25,401.39,301,405z"/>
	</g>
	<g display="inline">
		<path fill="#919191" d="M501,367c1.939,3.279,13.01,0.33,17,1c3.989,0.67,13.97,0.939,14-2c-2.011,3.37-11.051,0.01-15,1
			C513.05,367.99,505.3,366.25,501,367z"/>
	</g>
	<g display="inline">
		<path fill="#969696" d="M682,405c-0.04,0,0-1,0-1c0-12.43,1.09-26.35-1-38c0.39,5.74-1,14.6,0,20S678.25,401.39,682,405z"/>
	</g>
	<g display="inline">
		<path fill="#C6C6C6" d="M301,405c2.899,0.26,13.739,1.58,16,0c-4.271-1.48-10.94-1.46-16-1C301,404,300.96,405,301,405z"/>
	</g>
	<g display="inline">
		<path fill="#C7C7C7" d="M682,405c3.14,0.28,15.27,1.48,17-1c-5.631,0.38-11.381-0.51-17,0C682,404,681.96,405,682,405z"/>
	</g>
	<g display="inline">
		<path fill="#F6F6F6" d="M106,465c3.59-0.45,7.439,0.6,11,0c16.6-4.64,4.25-28.11-11-21C108.47,449.27,102.71,460.3,106,465
			 M110,462c0-5,0-10,0-15C123.78,443.34,123.92,466.01,110,462z"/>
	</g>
	<g display="inline">
		<path fill="#F7F7F7" d="M144,465c4.67,0,9.33,0,14,0c0-1,0-2,0-3c-4.88,0.12-12.391,1.44-10-6c3.149-0.86,10.66,2.3,10-3
			c-3.33,0-6.67,0-10,0c0.569-1.31-0.75-3.81,0-5c1.649-2.62,7.399-0.1,10-1c0-1,0-2,0-3c-4.67,0-9.33,0-14,0
			C146.47,449.27,140.71,460.3,144,465z"/>
	</g>
	<g display="inline">
		<path fill="#EAEAEA" d="M185,458c-3.73-4.5-2.12-15.37-10-14c3.319,3.75,4.17,21.65,9.97,21.97c5.8,0.32,6.79-18.52,10.03-21.97
			C187.06,442.59,188.92,453.94,185,458z"/>
	</g>
	<g display="inline">
		<path fill="#FCFCFC" d="M213,465c4.67,0,9.33,0,14,0c0-1,0-2,0-3c-4.88,0.12-12.391,1.44-10-6c3.149-0.86,10.66,2.3,10-3
			c-3.33,0-6.67,0-10,0c0.569-1.31-0.75-3.81,0-5c1.649-2.62,7.399-0.1,10-1c0-1,0-2,0-3c-4.67,0-9.33,0-14,0
			C215.47,449.27,209.71,460.3,213,465z"/>
	</g>
	<g display="inline">
		<path fill="#FDFDFD" d="M246,465c4.67,0,9.33,0,14,0c0.149-0.31,0.149-2.69,0-3c-2.78-0.88-8.17,1.61-10-1
			c-1.61-5.18,3.81-17.3-4-17C248.47,449.27,242.71,460.3,246,465z"/>
	</g>
	<g display="inline">
		<path fill="#EBEBEB" d="M292,444c-14.73-4.47-22.15,15.56-8.221,21.22C297.71,470.88,304.89,447.91,292,444 M291,448
			c7.81,3.05,0.939,18.49-7.07,13.07C275.92,455.66,282.59,444.72,291,448z"/>
	</g>
	<g display="inline">
		<path fill="#8B8B8B" d="M327,458c-4.811,1.62-6.62,0.94-7,7c-4.5-4.1-0.79-14.48-2-21c-2.561,5.54-0.021,10.33-1,17
			c-0.971,6.66,7.71,5.32,5-2C323.97,459.52,325.64,458.66,327,458z"/>
	</g>
	<g display="inline">
		<path fill="#ECECEC" d="M327,458c12.579-6.09-0.48-19.96-9-14c1.21,6.52-2.5,16.9,2,21C320.38,458.94,322.19,459.62,327,458
			 M322,455c-1.021-4.06,0.17-10.35,4.689-6.69C331.22,451.96,325.9,456.56,322,455z"/>
	</g>
	<g display="inline">
		<path fill="#8B8B8B" d="M365,465c-4.671,0-9.33,0-14,0c0-7,0-14,0-21c-3.69,2.59,0.199,14.66-0.971,18.97
			C348.85,467.28,363.93,467.2,365,465z"/>
	</g>
	<g display="inline">
		<path fill="#F6F6F6" d="M365,465c0-1,0-2,0-3c-4.881,0.12-12.391,1.44-10-6c3.149-0.86,10.659,2.3,10-3c-3.33,0-6.671,0-10,0
			c0.569-1.31-0.75-3.81,0-5c1.649-2.62,7.399-0.1,10-1c0-1,0-2,0-3c-3.521,1.64-10.87-2.19-14,0c0,7,0,14,0,21
			C355.67,465,360.329,465,365,465z"/>
	</g>
	<g display="inline">
		<path fill="#8B8B8B" d="M388,457c-2.271,1.37-0.341,5.78-1,8c-6.49-2.3-1.36-14.66-3-21c-4.011,2.8,0.09,12.5-0.99,17.99
			S392.39,464.69,388,457z"/>
	</g>
	<g display="inline">
		<path fill="#F2F2F2" d="M388,457c7.189-1.28,4.079,10.85,11,9c0.229-4.23-2.86-7.34-4-11c9.67-5.03-4.101-15.83-11-11
			c1.64,6.34-3.49,18.7,3,21C387.659,462.78,385.73,458.37,388,457 M392,453c-1.381,0.92-3.011,1.31-5,1c0.52-2.19-1.141-5.62,1-7
			C391.38,444.84,396.079,450.27,392,453z"/>
	</g>
	<g display="inline">
		<path fill="#8B8B8B" d="M446,465c-1.33,0-2.671,0-4,0c0-7,0-14,0-21c-3.48,2.01,0.779,10.97-1,14
			C439.22,461.03,442.93,469.66,446,465z"/>
	</g>
	<g display="inline">
		<path fill="#ECECEC" d="M446,465c-1.37-6.48,0.779-11.07,8-9c0.659,3.56-2.28,11.55,4,10c-1.95-6.61,4.329-20.99-4-22
			c1.609,6.44-1.561,9.67-8,8c0.289-2.35,0.829-10.78-4-8c0,7,0,14,0,21C443.329,465,444.67,465,446,465z"/>
	</g>
	<g display="inline">
		<path fill="#F8F8F8" d="M478,465c4.67,0,9.329,0,14,0c0-1,0-2,0-3c-4.881,0.12-12.391,1.44-10-6c3.149-0.86,10.659,2.3,10-3
			c-3.33,0-6.671,0-10,0c0.569-1.31-0.75-3.81,0-5c1.649-2.62,7.399-0.1,10-1c0-1,0-2,0-3c-4.671,0-9.33,0-14,0
			C480.47,449.27,474.71,460.3,478,465z"/>
	</g>
	<g display="inline">
		<path fill="#EAEAEA" d="M523,444c-8.811,0.92-10.021,14.87-14,22c4.01,1.11,5.829-1.48,6-5c3.67,0,7.329,0,11,0
			c0.1,3.11,2.569,6.02,6,5C530.619,458.09,524.28,451.87,523,444 M524,458c-7.131,1.71-7.07-2.03-4-7
			C522.39,452.4,523.4,455.44,524,458z"/>
	</g>
	<g display="inline">
		<path fill="#EBEBEB" d="M554,458c-3.021-4.81-1.73-15.63-10-14c5,6.65,3.569,20.74,13,22c0.96-7.76,6.239-14.2,7-22
			C555.97,443.1,558.94,454.48,554,458z"/>
	</g>
	<g display="inline">
		<path fill="#F1F1F1" d="M582,465c4.67,0,9.329,0,14,0c0-1,0-2,0-3c-4.82,0.41-11.221,0.86-9-6c3.329,0,6.67,0,10,0
			c-0.311-0.85,0.39-2.19,0-3c-3.311-0.22-6.69,0.3-10,0c-5.29-5.15,5.42-7.59,9-6c0-1,0-2,0-3c-4.671,0-9.33,0-14,0
			C584.47,449.27,578.71,460.3,582,465z"/>
	</g>
	<g display="inline">
		<path fill="#919191" d="M587,453c-0.04,0,0-1,0-1c0-1.33,0-2.67,0-4c2,1.75,13.77-1.03,9-4c0,1,0,2,0,3
			C592.42,445.41,581.71,447.85,587,453z"/>
	</g>
	<g display="inline">
		<path fill="#EFEFEF" d="M628,457c-3.61-4.74-5.431-14.15-13-13c1.949,6.61-4.33,20.99,4,22c0.59-4.51-1.221-10.24,1-14
			c4.479,4.38,5.76,14.08,13,14c-1.95-6.61,4.329-20.99-4-22C628.42,448.18,630.21,453.58,628,457z"/>
	</g>
	<g display="inline">
		<path fill="#161616" d="M110,462c13.92,4.01,13.779-18.66,0-15C110,452,110,457,110,462z"/>
	</g>
	<g display="inline">
		<path fill="#898989" d="M148,448c2.33-0.94,8.7,1.67,10-1C155.4,447.9,149.65,445.38,148,448z"/>
	</g>
	<g display="inline">
		<path fill="#8A8A8A" d="M217,448c2.33-0.94,8.7,1.67,10-1C224.4,447.9,218.65,445.38,217,448z"/>
	</g>
	<g display="inline">
		<path fill="#202020" d="M322,455c3.899,1.56,9.22-3.04,4.689-6.69C322.17,444.65,320.98,450.94,322,455z"/>
	</g>
	<g display="inline">
		<path fill="#8B8B8B" d="M355,448c2.329-0.94,8.699,1.67,10-1C362.4,447.9,356.65,445.38,355,448z"/>
	</g>
	<g display="inline">
		<path fill="#797979" d="M392,453c-1.25,0.33-2.73-0.25-4,0c0-2,0-4,0-6c-2.141,1.38-0.48,4.81-1,7
			C388.99,454.31,390.619,453.92,392,453z"/>
	</g>
	<g display="inline">
		<path fill="#1D1D1D" d="M392,453c4.079-2.73-0.62-8.16-4-6c0,2,0,4,0,6C389.27,452.75,390.75,453.33,392,453z"/>
	</g>
	<g display="inline">
		<path fill="#909090" d="M482,448c2.329-0.94,8.699,1.67,10-1C489.4,447.9,483.65,445.38,482,448z"/>
	</g>
	<g display="inline">
		<path fill="#1B1B1B" d="M291,448c-8.41-3.28-15.08,7.66-7.07,13.07C291.94,466.49,298.81,451.05,291,448z"/>
	</g>
	<g display="inline">
		<path fill="#373737" d="M524,458c-0.601-2.56-1.61-5.6-4-7C516.93,455.97,516.869,459.71,524,458z"/>
	</g>
	<g display="inline">
		<path fill="#555555" d="M587,453c3.31,0.3,6.689-0.22,10,0c-0.95-1.95-7.931-1.19-10-1C587,452,586.96,453,587,453z"/>
	</g>
	<g display="inline">
		<path fill="#898989" d="M260,462c-1.351-2.74-7.58-0.02-10-1C251.83,463.61,257.22,461.12,260,462z"/>
	</g>
	<g display="inline">
		<path fill="#8C8C8C" d="M582,465c2.449,3.5,18.609-0.13,14-3c0,1,0,2,0,3C591.329,465,586.67,465,582,465z"/>
	</g>
	<g display="inline">
		<path fill="#878787" d="M117,465c-3.561,0.6-7.41-0.45-11,0C107.85,467.64,114.83,465.66,117,465z"/>
	</g>
	<g display="inline">
		<path fill="#878787" d="M158,465c-4.67,0-9.33,0-14,0C145.16,466.66,157.01,467.04,158,465z"/>
	</g>
	<g display="inline">
		<path fill="#878787" d="M227,465c-4.67,0-9.33,0-14,0C214.16,466.66,226.01,467.04,227,465z"/>
	</g>
	<g display="inline">
		<path fill="#888888" d="M260,465c-4.67,0-9.33,0-14,0C247.17,466.67,259,467.04,260,465z"/>
	</g>
	<g display="inline">
		<path fill="#8B8B8B" d="M492,465c-4.671,0-9.33,0-14,0C479.159,466.66,491.01,467.04,492,465z"/>
	</g>
</g>
<g id="Capa_3" display="none">
	<rect x="59" y="111.5" display="inline" fill="#A32121" width="624" height="480"/>
</g>
<g id="Capa_1_copia" xmlns:v="https://svgstorm.com" display="none">
	<g display="inline">
		<path fill="none" stroke="#FDFDFD" stroke-width="0.3" d="M300,214c23.18,1.26,46.75,0.45,70,0s47.859,2.38,71,0
			c8.68-1.92,18.06-5.07,26-9c12.6-9.01,29.909-17.2,33.67-34.33c3.76-17.13-8.23-35.48-21.67-44.67
			c5.199-8.79,6.699-21.84-3.311-28.69c-10-6.86-20.53,4.4-28.99-2.01c-8.46-6.4-16.5-9.19-26.01-12.99
			c-9.5-3.81-20.83-6.9-30.689-8.31c-11.471-1.18-26.86-1.81-37.99,0.01c-11.13,1.81-21.91,4.15-31.79,8.21
			c-9.87,4.07-17.51,6.75-25.97,13.03c-8.471,6.27-20.181-4.79-29.5,2.5c-9.32,7.29-8.76,19.27-1.75,27.25
			c-17.4,9.96-33.71,40.91-20.25,58.25C256.21,200.58,278.9,212.86,300,214 M315,147c22.39,2.8,16.869,39.32-6,35
			C286.13,177.68,293.05,144.26,315,147 M432,147c22.17,2.77,16.739,39.36-6,35C403.26,177.64,409.88,144.24,432,147z"/>
	</g>
	<g display="inline">
		<path fill="none" stroke="#222222" stroke-width="0.3" d="M315,147c-21.95-2.74-28.87,30.68-6,35
			C331.869,186.32,337.39,149.8,315,147z"/>
	</g>
	<g display="inline">
		<path fill="none" stroke="#262626" stroke-width="0.3" d="M432,147c-22.12-2.76-28.74,30.64-6,35
			C448.74,186.36,454.17,149.77,432,147z"/>
	</g>
	<g display="inline">
		<path fill="none" stroke="#8F8F8F" stroke-width="0.3" d="M441,214c-23.141,2.38-47.75-0.45-71,0s-46.82,1.26-70,0
			c21.659,3.52,48.42,1.42,71,1C393.579,214.58,419.6,218.74,441,214z"/>
	</g>
	<g display="inline">
		<path fill="none" stroke="#F9F9F9" stroke-width="0.3" d="M360,228c6.67,0,13.329,0,20,0c18.689,0.04,36.359-4.07,54-8
			c-41.19-1.67-85.73-1.67-127,0C324.5,223.91,341.47,228,360,228z"/>
	</g>
	<g display="inline">
		<path fill="none" stroke="#878787" stroke-width="0.3" d="M380,228c-6.671,0-13.33,0-20,0C366.23,228.6,373.71,228.61,380,228z"/>
	</g>
	<g display="inline">
		<path fill="none" stroke="#F9F9F9" stroke-width="0.3" d="M470,235c-28.54-5.91-37.91,34.25-11.07,42.07
			C485.76,284.9,496.14,240.41,470,235z"/>
	</g>
	<g display="inline">
		<path fill="none" stroke="#FAFAFA" stroke-width="0.3" d="M293,237c-28.61-5.93-37.891,34.26-11.021,42.02
			C308.85,286.79,319.1,242.4,293,237z"/>
	</g>
	<g display="inline">
		<path fill="none" stroke="#969696" stroke-width="0.3" d="M640,318c5.67,0,11.329,0,17,0C655.64,316.05,641.409,315.99,640,318z"
			/>
	</g>
	<g display="inline">
		<path fill="none" stroke="#FCFCFC" stroke-width="0.3" d="M640,405c5.67,0,11.329,0,17,0c1.8-13.471-2.87-29.01,1.079-41.92
			c3.94-12.91,22.07-9.641,22.921,2.92c2.09,11.65,1,25.57,1,38c5.619-0.51,11.369,0.38,17,0c2.17-3.1-0.891-11.141,0-15
			c0.89-3.859,0-9.939,0-14c7.8-25.55-22.641-46.48-42-28c-0.83-4.311,1.1-10.92,0-15c-1.101-4.08,2.26-10.779,0-14
			c-5.671,0-11.33,0-17,0c-2.771,3.96,1.319,13.061,0,18c-1.32,4.939,0.569,11.561,0,17c-0.57,5.439,0.279,12.391,0,18
			c-0.28,5.609,0.149,11.359,0,17C639.85,393.641,640.11,399.36,640,405z"/>
	</g>
	<g display="inline">
		<path fill="none" stroke="#F9F9F9" stroke-width="0.3" d="M125,343c-18.91-39.97-84.141-25.51-85,19c-0.86,44.51,64.5,61.26,85,21
			c-10.25-7.641-18.13-5.12-26.3,2.7c-8.181,7.81-22.61,3.96-30.45-1.95s-12.36-19.26-9.03-28.529C62.56,345.96,70.82,337.65,81,336
			c10.18-1.65,22.12,3.88,27,13C113.78,347.27,119.07,344.05,125,343z"/>
	</g>
	<g display="inline">
		<path fill="none" stroke="#8F8F8F" stroke-width="0.3" d="M415,321c22.329,0,44.67,0,67,0c-2.641-3.779-16.95-0.38-22-1
			c-5.051-0.62-17.961-0.641-23,0C431.96,320.641,417.67,317.189,415,321z"/>
	</g>
	<g display="inline">
		<path fill="none" stroke="#FDFDFD" stroke-width="0.3" d="M439,337c4.319,4.32-0.811,14.971,1,21c1.81,6.029-2,16.93,0,23
			s-3.53,17.95,0,23c5.01,2.32,12.17,0.34,18,1c0-23,0-46,0-69c8,0,16,0,24,0c-1.761-3.77,2.35-11.641,0-15c-22.33,0-44.671,0-67,0
			c0,5,0,10,0,15C421.05,338.439,434.31,332.311,439,337z"/>
	</g>
	<g display="inline">
		<path fill="none" stroke="#858585" stroke-width="0.3" d="M440,404c-3.53-5.05,2-16.93,0-23s1.81-16.971,0-23
			c-1.811-6.029,3.319-16.68-1-21c3.529,5.05-2,16.93,0,23s-1.811,16.971,0,23C440.81,389.029,435.68,399.68,440,404z"/>
	</g>
	<g display="inline">
		<path fill="none" stroke="#F9F9F9" stroke-width="0.3" d="M173,340c-25.49-3.641-47.94,25.029-35.771,47.77
			s42.79,24.48,58.521,4.98C211.48,373.26,197.56,343.51,173,340 M169,355c22.029,1.41,20.689,37.09-2,36
			C144.31,389.9,147.33,353.609,169,355z"/>
	</g>
	<g display="inline">
		<path fill="none" stroke="#FBFBFB" stroke-width="0.3" d="M234,342c-5.67,0-11.33,0-17,0c0,21,0,42,0,63c5.67,0,11.33,0,17,0
			c2.859-13.15-8.48-49.99,13-50c21.479-0.01,8.319,37.21,12,50c5.67,0,11.33,0,17,0c1.88-13.45-2.98-29.07,1.08-41.92
			c4.05-12.859,22.05-9.83,22.92,2.92c2.09,11.65,1,25.57,1,38c5.06-0.46,11.729-0.48,16,1c1.5-12.74,1.55-29.41,0.779-42.779
			c-0.77-13.371-9.59-18.07-21.109-21.891c-11.521-3.82-21.96,11.02-30.97,3.97c-9.011-7.05-23.2-4.271-31.7,2.7
			C233.37,346.02,234.83,342.76,234,342z"/>
	</g>
	<g display="inline">
		<path fill="none" stroke="#FAFAFA" stroke-width="0.3" d="M353,342c-5.671,0-11.33,0-17,0c0,27.67,0,55.33,0,83
			c5.67,0,11.329,0,17,0c0-8.67,0-17.33,0-26c21.47,18.29,50.829-0.39,51-26c0.17-25.609-29.57-44.109-50-26
			C351.64,346.689,354,342.91,353,342 M371,355c22.159,2.33,19.829,37.859-3,36C345.17,389.141,348.57,352.641,371,355z"/>
	</g>
	<g display="inline">
		<path fill="none" stroke="#F8F8F8" stroke-width="0.3" d="M551,380c7.869-39.811-50.971-55.43-65.681-18.68
			C470.61,398.08,526.579,424.51,547,391c-5.04-0.59-10.561-10.07-15.25-5.25c-4.681,4.83-11.851,6.08-18.08,4.58
			c-6.221-1.51-11.4-3.46-12.67-10.33C517.67,380,534.329,380,551,380 M532,366c-0.03,2.939-10.011,2.67-14,2
			c-3.99-0.67-15.061,2.279-17-1c-1.58-2.67,5.189-7.779,7.699-9.3c2.511-1.521,11.11-2.7,14.521-0.921
			C526.63,358.561,532.05,361.26,532,366z"/>
	</g>
	<g display="inline">
		<path fill="none" stroke="#F8F8F8" stroke-width="0.3" d="M626,360c3.039-3.15-5.53-10.609-8.771-13.23
			c-3.24-2.619-12.77-6.25-17.229-6.77c-27.83-4.04-47.25,28.74-32.771,50.77C581.71,412.8,617.18,411.5,627,387
			c-5.271-0.75-9.91-3.689-15-5c-3.91,8.54-15.11,11.21-23.301,7.3c-8.189-3.899-11.42-15.35-8.47-23.069
			c2.95-7.721,14.8-14.971,22.69-9.15C610.82,362.891,616.38,365.16,626,360z"/>
	</g>
	<g display="inline">
		<path fill="none" stroke="#8D8D8D" stroke-width="0.3" d="M217,342c5.67,0,11.33,0,17,0C232.17,340.32,218.62,339.689,217,342z"/>
	</g>
	<g display="inline">
		<path fill="none" stroke="#8E8E8E" stroke-width="0.3" d="M336,342c5.67,0,11.329,0,17,0C351.17,340.32,337.619,339.689,336,342z"
			/>
	</g>
	<g display="inline">
		<path fill="none" stroke="#161616" stroke-width="0.3" d="M169,355c-21.67-1.391-24.69,34.9-2,36
			C189.69,392.09,191.03,356.41,169,355z"/>
	</g>
	<g display="inline">
		<path fill="none" stroke="#1E1E1E" stroke-width="0.3" d="M371,355c-22.431-2.359-25.83,34.141-3,36
			C390.829,392.859,393.159,357.33,371,355z"/>
	</g>
	<g display="inline">
		<path fill="none" stroke="#232323" stroke-width="0.3" d="M501,367c4.3-0.75,12.05,0.99,16,0c3.949-0.99,12.989,2.37,15-1
			c0.05-4.74-5.37-7.439-8.78-9.221c-3.41-1.779-12.01-0.6-14.521,0.921C506.19,359.221,499.42,364.33,501,367z"/>
	</g>
	<g display="inline">
		<path fill="none" stroke="#8D8D8D" stroke-width="0.3" d="M301,405c-0.04,0,0-1,0-1c0-12.43,1.09-26.35-1-38
			c0.39,5.74-1,14.6,0,20S297.25,401.39,301,405z"/>
	</g>
	<g display="inline">
		<path fill="none" stroke="#919191" stroke-width="0.3" d="M501,367c1.939,3.279,13.01,0.33,17,1c3.989,0.67,13.97,0.939,14-2
			c-2.011,3.37-11.051,0.01-15,1C513.05,367.99,505.3,366.25,501,367z"/>
	</g>
	<g display="inline">
		<path fill="none" stroke="#969696" stroke-width="0.3" d="M682,405c-0.04,0,0-1,0-1c0-12.43,1.09-26.35-1-38
			c0.39,5.74-1,14.6,0,20S678.25,401.39,682,405z"/>
	</g>
	<g display="inline">
		<path fill="none" stroke="#C6C6C6" stroke-width="0.3" d="M301,405c2.899,0.26,13.739,1.58,16,0c-4.271-1.48-10.94-1.46-16-1
			C301,404,300.96,405,301,405z"/>
	</g>
	<g display="inline">
		<path fill="none" stroke="#C7C7C7" stroke-width="0.3" d="M682,405c3.14,0.28,15.27,1.48,17-1c-5.631,0.38-11.381-0.51-17,0
			C682,404,681.96,405,682,405z"/>
	</g>
	<g display="inline">
		<path fill="none" stroke="#F6F6F6" stroke-width="0.3" d="M106,465c3.59-0.45,7.439,0.6,11,0c16.6-4.64,4.25-28.11-11-21
			C108.47,449.27,102.71,460.3,106,465 M110,462c0-5,0-10,0-15C123.78,443.34,123.92,466.01,110,462z"/>
	</g>
	<g display="inline">
		<path fill="none" stroke="#F7F7F7" stroke-width="0.3" d="M144,465c4.67,0,9.33,0,14,0c0-1,0-2,0-3c-4.88,0.12-12.391,1.44-10-6
			c3.149-0.86,10.66,2.3,10-3c-3.33,0-6.67,0-10,0c0.569-1.31-0.75-3.81,0-5c1.649-2.62,7.399-0.1,10-1c0-1,0-2,0-3
			c-4.67,0-9.33,0-14,0C146.47,449.27,140.71,460.3,144,465z"/>
	</g>
	<g display="inline">
		<path fill="none" stroke="#EAEAEA" stroke-width="0.3" d="M185,458c-3.73-4.5-2.12-15.37-10-14c3.319,3.75,4.17,21.65,9.97,21.97
			c5.8,0.32,6.79-18.52,10.03-21.97C187.06,442.59,188.92,453.94,185,458z"/>
	</g>
	<g display="inline">
		<path fill="none" stroke="#FCFCFC" stroke-width="0.3" d="M213,465c4.67,0,9.33,0,14,0c0-1,0-2,0-3c-4.88,0.12-12.391,1.44-10-6
			c3.149-0.86,10.66,2.3,10-3c-3.33,0-6.67,0-10,0c0.569-1.31-0.75-3.81,0-5c1.649-2.62,7.399-0.1,10-1c0-1,0-2,0-3
			c-4.67,0-9.33,0-14,0C215.47,449.27,209.71,460.3,213,465z"/>
	</g>
	<g display="inline">
		<path fill="none" stroke="#FDFDFD" stroke-width="0.3" d="M246,465c4.67,0,9.33,0,14,0c0.149-0.31,0.149-2.69,0-3
			c-2.78-0.88-8.17,1.61-10-1c-1.61-5.18,3.81-17.3-4-17C248.47,449.27,242.71,460.3,246,465z"/>
	</g>
	<g display="inline">
		<path fill="none" stroke="#EBEBEB" stroke-width="0.3" d="M292,444c-14.73-4.47-22.15,15.56-8.221,21.22
			C297.71,470.88,304.89,447.91,292,444 M291,448c7.81,3.05,0.939,18.49-7.07,13.07C275.92,455.66,282.59,444.72,291,448z"/>
	</g>
	<g display="inline">
		<path fill="none" stroke="#8B8B8B" stroke-width="0.3" d="M327,458c-4.811,1.62-6.62,0.94-7,7c-4.5-4.1-0.79-14.48-2-21
			c-2.561,5.54-0.021,10.33-1,17c-0.971,6.66,7.71,5.32,5-2C323.97,459.52,325.64,458.66,327,458z"/>
	</g>
	<g display="inline">
		<path fill="none" stroke="#ECECEC" stroke-width="0.3" d="M327,458c12.579-6.09-0.48-19.96-9-14c1.21,6.52-2.5,16.9,2,21
			C320.38,458.94,322.19,459.62,327,458 M322,455c-1.021-4.06,0.17-10.35,4.689-6.69C331.22,451.96,325.9,456.56,322,455z"/>
	</g>
	<g display="inline">
		<path fill="none" stroke="#8B8B8B" stroke-width="0.3" d="M365,465c-4.671,0-9.33,0-14,0c0-7,0-14,0-21
			c-3.69,2.59,0.199,14.66-0.971,18.97C348.85,467.28,363.93,467.2,365,465z"/>
	</g>
	<g display="inline">
		<path fill="none" stroke="#F6F6F6" stroke-width="0.3" d="M365,465c0-1,0-2,0-3c-4.881,0.12-12.391,1.44-10-6
			c3.149-0.86,10.659,2.3,10-3c-3.33,0-6.671,0-10,0c0.569-1.31-0.75-3.81,0-5c1.649-2.62,7.399-0.1,10-1c0-1,0-2,0-3
			c-3.521,1.64-10.87-2.19-14,0c0,7,0,14,0,21C355.67,465,360.329,465,365,465z"/>
	</g>
	<g display="inline">
		<path fill="none" stroke="#8B8B8B" stroke-width="0.3" d="M388,457c-2.271,1.37-0.341,5.78-1,8c-6.49-2.3-1.36-14.66-3-21
			c-4.011,2.8,0.09,12.5-0.99,17.99S392.39,464.69,388,457z"/>
	</g>
	<g display="inline">
		<path fill="none" stroke="#F2F2F2" stroke-width="0.3" d="M388,457c7.189-1.28,4.079,10.85,11,9c0.229-4.23-2.86-7.34-4-11
			c9.67-5.03-4.101-15.83-11-11c1.64,6.34-3.49,18.7,3,21C387.659,462.78,385.73,458.37,388,457 M392,453
			c-1.381,0.92-3.011,1.31-5,1c0.52-2.19-1.141-5.62,1-7C391.38,444.84,396.079,450.27,392,453z"/>
	</g>
	<g display="inline">
		<path fill="none" stroke="#8B8B8B" stroke-width="0.3" d="M446,465c-1.33,0-2.671,0-4,0c0-7,0-14,0-21
			c-3.48,2.01,0.779,10.97-1,14C439.22,461.03,442.93,469.66,446,465z"/>
	</g>
	<g display="inline">
		<path fill="none" stroke="#ECECEC" stroke-width="0.3" d="M446,465c-1.37-6.48,0.779-11.07,8-9c0.659,3.56-2.28,11.55,4,10
			c-1.95-6.61,4.329-20.99-4-22c1.609,6.44-1.561,9.67-8,8c0.289-2.35,0.829-10.78-4-8c0,7,0,14,0,21
			C443.329,465,444.67,465,446,465z"/>
	</g>
	<g display="inline">
		<path fill="none" stroke="#F8F8F8" stroke-width="0.3" d="M478,465c4.67,0,9.329,0,14,0c0-1,0-2,0-3c-4.881,0.12-12.391,1.44-10-6
			c3.149-0.86,10.659,2.3,10-3c-3.33,0-6.671,0-10,0c0.569-1.31-0.75-3.81,0-5c1.649-2.62,7.399-0.1,10-1c0-1,0-2,0-3
			c-4.671,0-9.33,0-14,0C480.47,449.27,474.71,460.3,478,465z"/>
	</g>
	<g display="inline">
		<path fill="none" stroke="#EAEAEA" stroke-width="0.3" d="M523,444c-8.811,0.92-10.021,14.87-14,22c4.01,1.11,5.829-1.48,6-5
			c3.67,0,7.329,0,11,0c0.1,3.11,2.569,6.02,6,5C530.619,458.09,524.28,451.87,523,444 M524,458c-7.131,1.71-7.07-2.03-4-7
			C522.39,452.4,523.4,455.44,524,458z"/>
	</g>
	<g display="inline">
		<path fill="none" stroke="#EBEBEB" stroke-width="0.3" d="M554,458c-3.021-4.81-1.73-15.63-10-14c5,6.65,3.569,20.74,13,22
			c0.96-7.76,6.239-14.2,7-22C555.97,443.1,558.94,454.48,554,458z"/>
	</g>
	<g display="inline">
		<path fill="none" stroke="#F1F1F1" stroke-width="0.3" d="M582,465c4.67,0,9.329,0,14,0c0-1,0-2,0-3c-4.82,0.41-11.221,0.86-9-6
			c3.329,0,6.67,0,10,0c-0.311-0.85,0.39-2.19,0-3c-3.311-0.22-6.69,0.3-10,0c-5.29-5.15,5.42-7.59,9-6c0-1,0-2,0-3
			c-4.671,0-9.33,0-14,0C584.47,449.27,578.71,460.3,582,465z"/>
	</g>
	<g display="inline">
		<path fill="none" stroke="#919191" stroke-width="0.3" d="M587,453c-0.04,0,0-1,0-1c0-1.33,0-2.67,0-4c2,1.75,13.77-1.03,9-4
			c0,1,0,2,0,3C592.42,445.41,581.71,447.85,587,453z"/>
	</g>
	<g display="inline">
		<path fill="none" stroke="#EFEFEF" stroke-width="0.3" d="M628,457c-3.61-4.74-5.431-14.15-13-13c1.949,6.61-4.33,20.99,4,22
			c0.59-4.51-1.221-10.24,1-14c4.479,4.38,5.76,14.08,13,14c-1.95-6.61,4.329-20.99-4-22C628.42,448.18,630.21,453.58,628,457z"/>
	</g>
	<g display="inline">
		<path fill="none" stroke="#161616" stroke-width="0.3" d="M110,462c13.92,4.01,13.779-18.66,0-15C110,452,110,457,110,462z"/>
	</g>
	<g display="inline">
		<path fill="none" stroke="#898989" stroke-width="0.3" d="M148,448c2.33-0.94,8.7,1.67,10-1C155.4,447.9,149.65,445.38,148,448z"
			/>
	</g>
	<g display="inline">
		<path fill="none" stroke="#8A8A8A" stroke-width="0.3" d="M217,448c2.33-0.94,8.7,1.67,10-1C224.4,447.9,218.65,445.38,217,448z"
			/>
	</g>
	<g display="inline">
		<path fill="none" stroke="#202020" stroke-width="0.3" d="M322,455c3.899,1.56,9.22-3.04,4.689-6.69
			C322.17,444.65,320.98,450.94,322,455z"/>
	</g>
	<g display="inline">
		<path fill="none" stroke="#8B8B8B" stroke-width="0.3" d="M355,448c2.329-0.94,8.699,1.67,10-1C362.4,447.9,356.65,445.38,355,448
			z"/>
	</g>
	<g display="inline">
		<path fill="none" stroke="#797979" stroke-width="0.3" d="M392,453c-1.25,0.33-2.73-0.25-4,0c0-2,0-4,0-6
			c-2.141,1.38-0.48,4.81-1,7C388.99,454.31,390.619,453.92,392,453z"/>
	</g>
	<g display="inline">
		<path fill="none" stroke="#1D1D1D" stroke-width="0.3" d="M392,453c4.079-2.73-0.62-8.16-4-6c0,2,0,4,0,6
			C389.27,452.75,390.75,453.33,392,453z"/>
	</g>
	<g display="inline">
		<path fill="none" stroke="#909090" stroke-width="0.3" d="M482,448c2.329-0.94,8.699,1.67,10-1C489.4,447.9,483.65,445.38,482,448
			z"/>
	</g>
	<g display="inline">
		<path fill="none" stroke="#1B1B1B" stroke-width="0.3" d="M291,448c-8.41-3.28-15.08,7.66-7.07,13.07
			C291.94,466.49,298.81,451.05,291,448z"/>
	</g>
	<g display="inline">
		<path fill="none" stroke="#373737" stroke-width="0.3" d="M524,458c-0.601-2.56-1.61-5.6-4-7
			C516.93,455.97,516.869,459.71,524,458z"/>
	</g>
	<g display="inline">
		<path fill="none" stroke="#555555" stroke-width="0.3" d="M587,453c3.31,0.3,6.689-0.22,10,0c-0.95-1.95-7.931-1.19-10-1
			C587,452,586.96,453,587,453z"/>
	</g>
	<g display="inline">
		<path fill="none" stroke="#898989" stroke-width="0.3" d="M260,462c-1.351-2.74-7.58-0.02-10-1
			C251.83,463.61,257.22,461.12,260,462z"/>
	</g>
	<g display="inline">
		<path fill="none" stroke="#8C8C8C" stroke-width="0.3" d="M582,465c2.449,3.5,18.609-0.13,14-3c0,1,0,2,0,3
			C591.329,465,586.67,465,582,465z"/>
	</g>
	<g display="inline">
		<path fill="none" stroke="#878787" stroke-width="0.3" d="M117,465c-3.561,0.6-7.41-0.45-11,0
			C107.85,467.64,114.83,465.66,117,465z"/>
	</g>
	<g display="inline">
		<path fill="none" stroke="#878787" stroke-width="0.3" d="M158,465c-4.67,0-9.33,0-14,0C145.16,466.66,157.01,467.04,158,465z"/>
	</g>
	<g display="inline">
		<path fill="none" stroke="#878787" stroke-width="0.3" d="M227,465c-4.67,0-9.33,0-14,0C214.16,466.66,226.01,467.04,227,465z"/>
	</g>
	<g display="inline">
		<path fill="none" stroke="#888888" stroke-width="0.3" d="M260,465c-4.67,0-9.33,0-14,0C247.17,466.67,259,467.04,260,465z"/>
	</g>
	<g display="inline">
		<path fill="none" stroke="#8B8B8B" stroke-width="0.3" d="M492,465c-4.671,0-9.33,0-14,0C479.159,466.66,491.01,467.04,492,465z"
			/>
	</g>
	<g display="inline">
		<path fill="#FDFDFD" d="M300,214c23.18,1.26,46.75,0.45,70,0s47.859,2.38,71,0c8.68-1.92,18.06-5.07,26-9
			c12.6-9.01,29.909-17.2,33.67-34.33c3.76-17.13-8.23-35.48-21.67-44.67c5.199-8.79,6.699-21.84-3.311-28.69
			c-10-6.86-20.53,4.4-28.99-2.01c-8.46-6.4-16.5-9.19-26.01-12.99c-9.5-3.81-20.83-6.9-30.689-8.31
			c-11.471-1.18-26.86-1.81-37.99,0.01c-11.13,1.81-21.91,4.15-31.79,8.21c-9.87,4.07-17.51,6.75-25.97,13.03
			c-8.471,6.27-20.181-4.79-29.5,2.5c-9.32,7.29-8.76,19.27-1.75,27.25c-17.4,9.96-33.71,40.91-20.25,58.25
			C256.21,200.58,278.9,212.86,300,214 M315,147c22.39,2.8,16.869,39.32-6,35C286.13,177.68,293.05,144.26,315,147 M432,147
			c22.17,2.77,16.739,39.36-6,35C403.26,177.64,409.88,144.24,432,147z"/>
	</g>
	<g display="inline">
		<path fill="#8F8F8F" d="M441,214c-23.141,2.38-47.75-0.45-71,0s-46.82,1.26-70,0c21.659,3.52,48.42,1.42,71,1
			C393.579,214.58,419.6,218.74,441,214z"/>
	</g>
	<g display="inline">
		<path fill="#F9F9F9" d="M360,228c6.67,0,13.329,0,20,0c18.689,0.04,36.359-4.07,54-8c-41.19-1.67-85.73-1.67-127,0
			C324.5,223.91,341.47,228,360,228z"/>
	</g>
	<g display="inline">
		<path fill="#878787" d="M380,228c-6.671,0-13.33,0-20,0C366.23,228.6,373.71,228.61,380,228z"/>
	</g>
	<g display="inline">
		<path fill="#F9F9F9" d="M470,235c-28.54-5.91-37.91,34.25-11.07,42.07C485.76,284.9,496.14,240.41,470,235z"/>
	</g>
	<g display="inline">
		<path fill="#FAFAFA" d="M293,237c-28.61-5.93-37.891,34.26-11.021,42.02C308.85,286.79,319.1,242.4,293,237z"/>
	</g>
	<g display="inline">
		<path fill="#969696" d="M640,318c5.67,0,11.329,0,17,0C655.64,316.05,641.409,315.99,640,318z"/>
	</g>
	<g display="inline">
		<path fill="#FCFCFC" d="M640,405c5.67,0,11.329,0,17,0c1.8-13.471-2.87-29.01,1.079-41.92c3.94-12.91,22.07-9.641,22.921,2.92
			c2.09,11.65,1,25.57,1,38c5.619-0.51,11.369,0.38,17,0c2.17-3.1-0.891-11.141,0-15c0.89-3.859,0-9.939,0-14
			c7.8-25.55-22.641-46.48-42-28c-0.83-4.311,1.1-10.92,0-15c-1.101-4.08,2.26-10.779,0-14c-5.671,0-11.33,0-17,0
			c-2.771,3.96,1.319,13.061,0,18c-1.32,4.939,0.569,11.561,0,17c-0.57,5.439,0.279,12.391,0,18c-0.28,5.609,0.149,11.359,0,17
			C639.85,393.641,640.11,399.36,640,405z"/>
	</g>
	<g display="inline">
		<path fill="#F9F9F9" d="M125,343c-18.91-39.97-84.141-25.51-85,19c-0.86,44.51,64.5,61.26,85,21c-10.25-7.641-18.13-5.12-26.3,2.7
			c-8.181,7.81-22.61,3.96-30.45-1.95s-12.36-19.26-9.03-28.529C62.56,345.96,70.82,337.65,81,336c10.18-1.65,22.12,3.88,27,13
			C113.78,347.27,119.07,344.05,125,343z"/>
	</g>
	<g display="inline">
		<path fill="#8F8F8F" d="M415,321c22.329,0,44.67,0,67,0c-2.641-3.779-16.95-0.38-22-1c-5.051-0.62-17.961-0.641-23,0
			C431.96,320.641,417.67,317.189,415,321z"/>
	</g>
	<g display="inline">
		<path fill="#FDFDFD" d="M439,337c4.319,4.32-0.811,14.971,1,21c1.81,6.029-2,16.93,0,23s-3.53,17.95,0,23
			c5.01,2.32,12.17,0.34,18,1c0-23,0-46,0-69c8,0,16,0,24,0c-1.761-3.77,2.35-11.641,0-15c-22.33,0-44.671,0-67,0c0,5,0,10,0,15
			C421.05,338.439,434.31,332.311,439,337z"/>
	</g>
	<g display="inline">
		<path fill="#858585" d="M440,404c-3.53-5.05,2-16.93,0-23s1.81-16.971,0-23c-1.811-6.029,3.319-16.68-1-21
			c3.529,5.05-2,16.93,0,23s-1.811,16.971,0,23C440.81,389.029,435.68,399.68,440,404z"/>
	</g>
	<g display="inline">
		<path fill="#F9F9F9" d="M173,340c-25.49-3.641-47.94,25.029-35.771,47.77s42.79,24.48,58.521,4.98
			C211.48,373.26,197.56,343.51,173,340 M169,355c22.029,1.41,20.689,37.09-2,36C144.31,389.9,147.33,353.609,169,355z"/>
	</g>
	<g display="inline">
		<path fill="#FBFBFB" d="M234,342c-5.67,0-11.33,0-17,0c0,21,0,42,0,63c5.67,0,11.33,0,17,0c2.859-13.15-8.48-49.99,13-50
			c21.479-0.01,8.319,37.21,12,50c5.67,0,11.33,0,17,0c1.88-13.45-2.98-29.07,1.08-41.92c4.05-12.859,22.05-9.83,22.92,2.92
			c2.09,11.65,1,25.57,1,38c5.06-0.46,11.729-0.48,16,1c1.5-12.74,1.55-29.41,0.779-42.779c-0.77-13.371-9.59-18.07-21.109-21.891
			c-11.521-3.82-21.96,11.02-30.97,3.97c-9.011-7.05-23.2-4.271-31.7,2.7C233.37,346.02,234.83,342.76,234,342z"/>
	</g>
	<g display="inline">
		<path fill="#FAFAFA" d="M353,342c-5.671,0-11.33,0-17,0c0,27.67,0,55.33,0,83c5.67,0,11.329,0,17,0c0-8.67,0-17.33,0-26
			c21.47,18.29,50.829-0.39,51-26c0.17-25.609-29.57-44.109-50-26C351.64,346.689,354,342.91,353,342 M371,355
			c22.159,2.33,19.829,37.859-3,36C345.17,389.141,348.57,352.641,371,355z"/>
	</g>
	<g display="inline">
		<path fill="#F8F8F8" d="M551,380c7.869-39.811-50.971-55.43-65.681-18.68C470.61,398.08,526.579,424.51,547,391
			c-5.04-0.59-10.561-10.07-15.25-5.25c-4.681,4.83-11.851,6.08-18.08,4.58c-6.221-1.51-11.4-3.46-12.67-10.33
			C517.67,380,534.329,380,551,380 M532,366c-0.03,2.939-10.011,2.67-14,2c-3.99-0.67-15.061,2.279-17-1
			c-1.58-2.67,5.189-7.779,7.699-9.3c2.511-1.521,11.11-2.7,14.521-0.921C526.63,358.561,532.05,361.26,532,366z"/>
	</g>
	<g display="inline">
		<path fill="#F8F8F8" d="M626,360c3.039-3.15-5.53-10.609-8.771-13.23c-3.24-2.619-12.77-6.25-17.229-6.77
			c-27.83-4.04-47.25,28.74-32.771,50.77C581.71,412.8,617.18,411.5,627,387c-5.271-0.75-9.91-3.689-15-5
			c-3.91,8.54-15.11,11.21-23.301,7.3c-8.189-3.899-11.42-15.35-8.47-23.069c2.95-7.721,14.8-14.971,22.69-9.15
			C610.82,362.891,616.38,365.16,626,360z"/>
	</g>
	<g display="inline">
		<path fill="#8D8D8D" d="M217,342c5.67,0,11.33,0,17,0C232.17,340.32,218.62,339.689,217,342z"/>
	</g>
	<g display="inline">
		<path fill="#8E8E8E" d="M336,342c5.67,0,11.329,0,17,0C351.17,340.32,337.619,339.689,336,342z"/>
	</g>
	<g display="inline">
		<path fill="#8D8D8D" d="M301,405c-0.04,0,0-1,0-1c0-12.43,1.09-26.35-1-38c0.39,5.74-1,14.6,0,20S297.25,401.39,301,405z"/>
	</g>
	<g display="inline">
		<path fill="#919191" d="M501,367c1.939,3.279,13.01,0.33,17,1c3.989,0.67,13.97,0.939,14-2c-2.011,3.37-11.051,0.01-15,1
			C513.05,367.99,505.3,366.25,501,367z"/>
	</g>
	<g display="inline">
		<path fill="#969696" d="M682,405c-0.04,0,0-1,0-1c0-12.43,1.09-26.35-1-38c0.39,5.74-1,14.6,0,20S678.25,401.39,682,405z"/>
	</g>
	<g display="inline">
		<path fill="#C6C6C6" d="M301,405c2.899,0.26,13.739,1.58,16,0c-4.271-1.48-10.94-1.46-16-1C301,404,300.96,405,301,405z"/>
	</g>
	<g display="inline">
		<path fill="#C7C7C7" d="M682,405c3.14,0.28,15.27,1.48,17-1c-5.631,0.38-11.381-0.51-17,0C682,404,681.96,405,682,405z"/>
	</g>
	<g display="inline">
		<path fill="#F6F6F6" d="M106,465c3.59-0.45,7.439,0.6,11,0c16.6-4.64,4.25-28.11-11-21C108.47,449.27,102.71,460.3,106,465
			 M110,462c0-5,0-10,0-15C123.78,443.34,123.92,466.01,110,462z"/>
	</g>
	<g display="inline">
		<path fill="#F7F7F7" d="M144,465c4.67,0,9.33,0,14,0c0-1,0-2,0-3c-4.88,0.12-12.391,1.44-10-6c3.149-0.86,10.66,2.3,10-3
			c-3.33,0-6.67,0-10,0c0.569-1.31-0.75-3.81,0-5c1.649-2.62,7.399-0.1,10-1c0-1,0-2,0-3c-4.67,0-9.33,0-14,0
			C146.47,449.27,140.71,460.3,144,465z"/>
	</g>
	<g display="inline">
		<path fill="#EAEAEA" d="M185,458c-3.73-4.5-2.12-15.37-10-14c3.319,3.75,4.17,21.65,9.97,21.97c5.8,0.32,6.79-18.52,10.03-21.97
			C187.06,442.59,188.92,453.94,185,458z"/>
	</g>
	<g display="inline">
		<path fill="#FCFCFC" d="M213,465c4.67,0,9.33,0,14,0c0-1,0-2,0-3c-4.88,0.12-12.391,1.44-10-6c3.149-0.86,10.66,2.3,10-3
			c-3.33,0-6.67,0-10,0c0.569-1.31-0.75-3.81,0-5c1.649-2.62,7.399-0.1,10-1c0-1,0-2,0-3c-4.67,0-9.33,0-14,0
			C215.47,449.27,209.71,460.3,213,465z"/>
	</g>
	<g display="inline">
		<path fill="#FDFDFD" d="M246,465c4.67,0,9.33,0,14,0c0.149-0.31,0.149-2.69,0-3c-2.78-0.88-8.17,1.61-10-1
			c-1.61-5.18,3.81-17.3-4-17C248.47,449.27,242.71,460.3,246,465z"/>
	</g>
	<g display="inline">
		<path fill="#EBEBEB" d="M292,444c-14.73-4.47-22.15,15.56-8.221,21.22C297.71,470.88,304.89,447.91,292,444 M291,448
			c7.81,3.05,0.939,18.49-7.07,13.07C275.92,455.66,282.59,444.72,291,448z"/>
	</g>
	<g display="inline">
		<path fill="#8B8B8B" d="M327,458c-4.811,1.62-6.62,0.94-7,7c-4.5-4.1-0.79-14.48-2-21c-2.561,5.54-0.021,10.33-1,17
			c-0.971,6.66,7.71,5.32,5-2C323.97,459.52,325.64,458.66,327,458z"/>
	</g>
	<g display="inline">
		<path fill="#ECECEC" d="M327,458c12.579-6.09-0.48-19.96-9-14c1.21,6.52-2.5,16.9,2,21C320.38,458.94,322.19,459.62,327,458
			 M322,455c-1.021-4.06,0.17-10.35,4.689-6.69C331.22,451.96,325.9,456.56,322,455z"/>
	</g>
	<g display="inline">
		<path fill="#8B8B8B" d="M365,465c-4.671,0-9.33,0-14,0c0-7,0-14,0-21c-3.69,2.59,0.199,14.66-0.971,18.97
			C348.85,467.28,363.93,467.2,365,465z"/>
	</g>
	<g display="inline">
		<path fill="#F6F6F6" d="M365,465c0-1,0-2,0-3c-4.881,0.12-12.391,1.44-10-6c3.149-0.86,10.659,2.3,10-3c-3.33,0-6.671,0-10,0
			c0.569-1.31-0.75-3.81,0-5c1.649-2.62,7.399-0.1,10-1c0-1,0-2,0-3c-3.521,1.64-10.87-2.19-14,0c0,7,0,14,0,21
			C355.67,465,360.329,465,365,465z"/>
	</g>
	<g display="inline">
		<path fill="#8B8B8B" d="M388,457c-2.271,1.37-0.341,5.78-1,8c-6.49-2.3-1.36-14.66-3-21c-4.011,2.8,0.09,12.5-0.99,17.99
			S392.39,464.69,388,457z"/>
	</g>
	<g display="inline">
		<path fill="#F2F2F2" d="M388,457c7.189-1.28,4.079,10.85,11,9c0.229-4.23-2.86-7.34-4-11c9.67-5.03-4.101-15.83-11-11
			c1.64,6.34-3.49,18.7,3,21C387.659,462.78,385.73,458.37,388,457 M392,453c-1.381,0.92-3.011,1.31-5,1c0.52-2.19-1.141-5.62,1-7
			C391.38,444.84,396.079,450.27,392,453z"/>
	</g>
	<g display="inline">
		<path fill="#8B8B8B" d="M446,465c-1.33,0-2.671,0-4,0c0-7,0-14,0-21c-3.48,2.01,0.779,10.97-1,14
			C439.22,461.03,442.93,469.66,446,465z"/>
	</g>
	<g display="inline">
		<path fill="#ECECEC" d="M446,465c-1.37-6.48,0.779-11.07,8-9c0.659,3.56-2.28,11.55,4,10c-1.95-6.61,4.329-20.99-4-22
			c1.609,6.44-1.561,9.67-8,8c0.289-2.35,0.829-10.78-4-8c0,7,0,14,0,21C443.329,465,444.67,465,446,465z"/>
	</g>
	<g display="inline">
		<path fill="#F8F8F8" d="M478,465c4.67,0,9.329,0,14,0c0-1,0-2,0-3c-4.881,0.12-12.391,1.44-10-6c3.149-0.86,10.659,2.3,10-3
			c-3.33,0-6.671,0-10,0c0.569-1.31-0.75-3.81,0-5c1.649-2.62,7.399-0.1,10-1c0-1,0-2,0-3c-4.671,0-9.33,0-14,0
			C480.47,449.27,474.71,460.3,478,465z"/>
	</g>
	<g display="inline">
		<path fill="#EAEAEA" d="M523,444c-8.811,0.92-10.021,14.87-14,22c4.01,1.11,5.829-1.48,6-5c3.67,0,7.329,0,11,0
			c0.1,3.11,2.569,6.02,6,5C530.619,458.09,524.28,451.87,523,444 M524,458c-7.131,1.71-7.07-2.03-4-7
			C522.39,452.4,523.4,455.44,524,458z"/>
	</g>
	<g display="inline">
		<path fill="#EBEBEB" d="M554,458c-3.021-4.81-1.73-15.63-10-14c5,6.65,3.569,20.74,13,22c0.96-7.76,6.239-14.2,7-22
			C555.97,443.1,558.94,454.48,554,458z"/>
	</g>
	<g display="inline">
		<path fill="#F1F1F1" d="M582,465c4.67,0,9.329,0,14,0c0-1,0-2,0-3c-4.82,0.41-11.221,0.86-9-6c3.329,0,6.67,0,10,0
			c-0.311-0.85,0.39-2.19,0-3c-3.311-0.22-6.69,0.3-10,0c-5.29-5.15,5.42-7.59,9-6c0-1,0-2,0-3c-4.671,0-9.33,0-14,0
			C584.47,449.27,578.71,460.3,582,465z"/>
	</g>
	<g display="inline">
		<path fill="#919191" d="M587,453c-0.04,0,0-1,0-1c0-1.33,0-2.67,0-4c2,1.75,13.77-1.03,9-4c0,1,0,2,0,3
			C592.42,445.41,581.71,447.85,587,453z"/>
	</g>
	<g display="inline">
		<path fill="#EFEFEF" d="M628,457c-3.61-4.74-5.431-14.15-13-13c1.949,6.61-4.33,20.99,4,22c0.59-4.51-1.221-10.24,1-14
			c4.479,4.38,5.76,14.08,13,14c-1.95-6.61,4.329-20.99-4-22C628.42,448.18,630.21,453.58,628,457z"/>
	</g>
	<g display="inline">
		<path fill="#898989" d="M148,448c2.33-0.94,8.7,1.67,10-1C155.4,447.9,149.65,445.38,148,448z"/>
	</g>
	<g display="inline">
		<path fill="#8A8A8A" d="M217,448c2.33-0.94,8.7,1.67,10-1C224.4,447.9,218.65,445.38,217,448z"/>
	</g>
	<g display="inline">
		<path fill="#202020" d="M322,455c3.899,1.56,9.22-3.04,4.689-6.69C322.17,444.65,320.98,450.94,322,455z"/>
	</g>
	<g display="inline">
		<path fill="#8B8B8B" d="M355,448c2.329-0.94,8.699,1.67,10-1C362.4,447.9,356.65,445.38,355,448z"/>
	</g>
	<g display="inline">
		<path fill="#797979" d="M392,453c-1.25,0.33-2.73-0.25-4,0c0-2,0-4,0-6c-2.141,1.38-0.48,4.81-1,7
			C388.99,454.31,390.619,453.92,392,453z"/>
	</g>
	<g display="inline">
		<path fill="#1D1D1D" d="M392,453c4.079-2.73-0.62-8.16-4-6c0,2,0,4,0,6C389.27,452.75,390.75,453.33,392,453z"/>
	</g>
	<g display="inline">
		<path fill="#909090" d="M482,448c2.329-0.94,8.699,1.67,10-1C489.4,447.9,483.65,445.38,482,448z"/>
	</g>
	<g display="inline">
		<path fill="#1B1B1B" d="M291,448c-8.41-3.28-15.08,7.66-7.07,13.07C291.94,466.49,298.81,451.05,291,448z"/>
	</g>
	<g display="inline">
		<path fill="#555555" d="M587,453c3.31,0.3,6.689-0.22,10,0c-0.95-1.95-7.931-1.19-10-1C587,452,586.96,453,587,453z"/>
	</g>
	<g display="inline">
		<path fill="#898989" d="M260,462c-1.351-2.74-7.58-0.02-10-1C251.83,463.61,257.22,461.12,260,462z"/>
	</g>
	<g display="inline">
		<path fill="#8C8C8C" d="M582,465c2.449,3.5,18.609-0.13,14-3c0,1,0,2,0,3C591.329,465,586.67,465,582,465z"/>
	</g>
	<g display="inline">
		<path fill="#878787" d="M117,465c-3.561,0.6-7.41-0.45-11,0C107.85,467.64,114.83,465.66,117,465z"/>
	</g>
	<g display="inline">
		<path fill="#878787" d="M158,465c-4.67,0-9.33,0-14,0C145.16,466.66,157.01,467.04,158,465z"/>
	</g>
	<g display="inline">
		<path fill="#878787" d="M227,465c-4.67,0-9.33,0-14,0C214.16,466.66,226.01,467.04,227,465z"/>
	</g>
	<g display="inline">
		<path fill="#888888" d="M260,465c-4.67,0-9.33,0-14,0C247.17,466.67,259,467.04,260,465z"/>
	</g>
	<g display="inline">
		<path fill="#8B8B8B" d="M492,465c-4.671,0-9.33,0-14,0C479.159,466.66,491.01,467.04,492,465z"/>
	</g>
</g>
<g id="Capa_4" display="none">
	<g display="inline">
		<path fill-rule="evenodd" clip-rule="evenodd" d="M594.3,468.899c-148.363,0-296.727,0-445.145,0c0-109.536,0-219.073,0-328.799
			c148.345,0,296.746,0,445.145,0c-0.026,1.098-0.075,2.195-0.075,3.293c0.003,58.248,0.004,116.495,0.018,174.743
			C594.254,368.391,594.281,418.646,594.3,468.899z M306.132,214.451c-3.384,4.083-6.874,7.693-9.664,11.782
			c-6.767,9.914-6.538,19.732,1.036,27.032c9.979,9.617,22.165,15.257,36.042,15.495c25.591,0.439,51.195,0.136,76.795,0.132
			c1.096,0,2.248,0.108,3.279-0.176c10.731-2.954,20.76-7.431,28.918-15.15c8.995-8.513,9.809-18.654,2.597-28.831
			c-2.515-3.548-5.495-6.766-8.412-10.315c0.24-0.366,0.762-1.086,1.207-1.852c2.332-3.998,1.539-9.199-1.908-12.662
			c-3.422-3.437-8.753-4.363-12.608-1.677c-2.091,1.457-3.398,0.974-5.188-0.223c-9.938-6.647-20.841-11.023-32.626-12.934
			c-22.293-3.614-42.9,0.888-61.699,13.447c-1.396,0.932-2.397,1.074-3.952,0.034c-4.404-2.947-9.689-2.192-13.361,1.584
			C302.852,203.975,302.74,209.238,306.132,214.451z M339.838,382.877c0-7.941,0.213-15.713-0.047-23.469
			c-0.46-13.693-11.418-17.146-21.126-14.215c-2.483,0.75-4.693,2.402-7.073,3.663c-6.94-5.945-14.26-6.154-21.815-0.78
			c-0.166-1.176-0.288-2.046-0.415-2.948c-3.385,0-6.639,0-10.099,0c0,12.096-0.002,23.98,0.007,35.866
			c0,0.574,0.107,1.149,0.177,1.846c3.387,0,6.618,0,10.142,0c0-2.569-0.049-4.951,0.01-7.33c0.136-5.486-0.004-11.008,0.593-16.445
			c0.517-4.714,3.976-6.769,8.65-5.97c3.621,0.618,5.36,2.962,5.433,7.77c0.095,6.296,0.015,12.594,0.036,18.891
			c0.004,1.043,0.144,2.086,0.221,3.129c3.538,0,6.697,0,10.216,0c0-4.02-0.037-7.885,0.011-11.75
			c0.049-3.991-0.133-8.021,0.364-11.961c0.546-4.338,3.61-6.497,7.741-6.193c4.218,0.31,6.266,2.421,6.38,7.126
			c0.156,6.394,0.06,12.793,0.09,19.189c0.005,1.169,0.098,2.337,0.154,3.582C333.045,382.877,336.296,382.877,339.838,382.877z
			 M350.775,345.058c0,16.841,0,33.355,0,49.834c3.465,0,6.694,0,10.246,0c0-5.137,0-10.037,0-15.143
			c8.947,5.94,18.835,5.131,25.329-1.823c6.406-6.861,6.874-19.404,0.972-26.881c-2.832-3.587-6.523-5.857-11.019-6.657
			c-5.526-0.984-10.662,0.04-15.244,3.614c-0.158-1.095-0.282-1.96-0.424-2.944C357.352,345.058,354.189,345.058,350.775,345.058z
			 M224.231,345.481c-7.167-11.602-19.874-16.383-32.441-12.522c-11.583,3.559-19.237,14.358-18.65,26.316
			c0.55,11.213,9.695,21.655,20.993,23.97c12.166,2.492,24.884-3.128,29.935-13.415c-2.225-0.868-4.52-1.561-6.62-2.637
			c-2.346-1.202-3.78-0.734-5.549,1.261c-5.354,6.035-13.572,7.111-20.088,2.972c-6.679-4.242-9.43-12.501-6.542-19.646
			c4.558-11.276,18.843-13.608,27.116-4.489c0.724,0.797,2.187,1.723,3.001,1.496C218.326,347.968,221.135,346.682,224.231,345.481z
			 M543.369,382.878c0-2.55-0.01-4.924,0.002-7.298c0.027-5.099-0.211-10.219,0.18-15.29c0.39-5.047,3.336-7.509,7.745-7.291
			c4.522,0.224,6.457,2.457,6.538,7.89c0.094,6.298,0.023,12.6,0.053,18.899c0.005,1.044,0.154,2.088,0.233,3.088
			c3.632,0,6.888,0,10.142,0c0-8.975,0.504-17.784-0.151-26.506c-0.576-7.683-4.801-11.086-12.525-12.05
			c-4.452-0.555-8.343,0.954-12.349,3.615c0-6.047,0-11.603,0-17.238c-3.519,0-6.761,0-9.952,0c0,17.553,0,34.88,0,52.181
			C536.728,382.878,539.888,382.878,543.369,382.878z M449.372,368.895c0.189-0.277,0.379-0.555,0.568-0.833
			c1.058,0,2.114,0,3.172,0c7.996,0,15.993,0.05,23.987-0.071c0.864-0.013,2.397-0.942,2.462-1.566
			c0.527-5.092-0.232-9.964-3.414-14.202c-5.863-7.812-15.929-10.077-25.885-5.834c-11.146,4.75-15.069,20.206-7.44,29.673
			c5.588,6.934,13.092,8.694,21.528,7.376c5.559-0.869,9.853-3.791,13.227-8.48c-2.282-1.34-4.311-2.419-6.215-3.687
			c-1.339-0.893-2.262-0.694-3.365,0.396c-4.601,4.544-10.954,3.379-14.752,1.274C451.687,372.075,450.648,370.271,449.372,368.895z
			 M249.981,383.816c11.337,0.031,20.72-8.784,20.851-19.592c0.13-10.678-9.308-19.91-20.487-20.042
			c-11.272-0.133-20.81,8.784-20.88,19.523C229.39,374.894,238.46,383.784,249.981,383.816z M412.865,341.86
			c0,13.926,0,27.461,0,40.967c3.88,0,7.328,0,11.155,0c0-13.748,0-27.274,0-41.139c5.026,0,9.67,0,14.211,0c0-3.286,0-6.22,0-9.137
			c-13.508,0-26.742,0-39.961,0c0,3.191,0,6.139,0,9.309C403.05,341.86,407.621,341.86,412.865,341.86z M525.38,355.443
			c-4.11-8.514-14.139-12.966-23.688-10.695c-9.414,2.24-15.892,11.009-15.423,20.878c0.403,8.453,8.079,16.613,17.006,18.077
			c9.827,1.612,18.706-2.817,21.795-10.998c-0.59-0.281-1.179-0.607-1.8-0.852c-2.212-0.866-4.436-1.705-5.579-2.143
			c-3.392,1.914-5.847,4.085-8.646,4.712c-5.447,1.218-10.214-1.863-11.874-6.767c-1.658-4.897,0.249-10.349,4.486-12.823
			c4.313-2.519,9.643-1.394,13.502,2.703c0.542,0.574,1.755,1.081,2.425,0.872C520.228,357.583,522.78,356.461,525.38,355.443z
			 M321.147,282.104c-7.117,0.031-12.911,5.864-12.882,12.972c0.028,7.088,5.871,12.923,12.97,12.951
			c7.091,0.028,13.02-5.851,12.992-12.885C334.198,287.736,328.516,282.073,321.147,282.104z M427.711,280.945
			c-7.263-0.121-13.09,5.468-13.2,12.659c-0.109,7.15,5.595,13.092,12.714,13.244c7.172,0.152,13.248-5.832,13.254-13.056
			C440.485,286.771,434.814,281.063,427.711,280.945z M334.592,271.599c24.775,7.815,49.489,7.033,74.19,0
			C384.052,271.599,359.322,271.599,334.592,271.599z M518.147,406.857c0,3.673-0.087,7.266,0.077,10.848
			c0.03,0.663,1.065,1.279,1.638,1.917c0.31-0.196,0.618-0.394,0.928-0.59c0-2.481,0-4.963,0-7.571
			c3.233,2.295,3.097,7.456,7.984,8.097c0-4.602,0-8.751,0-12.9c-0.369-0.11-0.737-0.222-1.105-0.331
			c-2.64,1.723-0.261,5.245-1.701,7.656c-1.107-1.68-2.131-3.25-3.171-4.809C521.769,407.635,521.032,405.573,518.147,406.857z
			 M321.576,406.329c-3.926-0.042-6.936,2.852-6.917,6.647c0.019,3.651,2.928,6.617,6.611,6.739
			c3.754,0.125,7.017-2.871,7.159-6.574C328.571,409.506,325.414,406.368,321.576,406.329z M212.809,419.357
			c3.685-0.128,7.528,1.247,10.175-2.543c1.604-2.297,1.582-5.604-0.113-7.825c-2.726-3.57-6.488-2.388-10.062-2.366
			C212.809,410.98,212.809,415.026,212.809,419.357z M381.804,414.437c2.694-0.176,3.219,1.502,3.673,3.153
			c0.458,1.663,1.317,2.274,3.264,1.438c-0.783-1.932-1.516-3.738-2.248-5.545c0.261,0.027,0.521,0.055,0.781,0.083
			c0.134-1.719,0.951-3.802,0.268-5.084c-1.81-3.392-5.244-1.585-8.391-2.112c0,4.146-0.041,7.909,0.054,11.669
			c0.012,0.456,0.755,0.895,1.16,1.341c0.425-0.423,1.124-0.792,1.221-1.279C381.809,416.962,381.744,415.766,381.804,414.437z
			 M421.562,413.847c0,1.592-0.107,2.893,0.055,4.16c0.063,0.496,0.732,0.915,1.126,1.37c0.428-0.406,1.219-0.802,1.229-1.218
			c0.095-3.85,0.056-7.703,0.056-11.56c-0.879,0-1.758-0.112-1.795,0.018c-0.443,1.538-0.762,3.111-1.162,4.898
			c-1.419-0.063-2.84-0.124-4.209-0.185c-0.442-4.786-0.442-4.786-2.931-4.477c0,3.63-0.053,7.301,0.058,10.968
			c0.017,0.546,0.801,1.068,1.229,1.602c0.477-0.584,1.246-1.114,1.365-1.763c0.221-1.21,0.063-2.489,0.063-3.814
			C418.434,413.847,419.796,413.847,421.562,413.847z M362.201,413.721c1.656,0,3.043,0.067,4.416-0.038
			c0.465-0.035,0.895-0.512,1.341-0.786c-0.456-0.374-0.86-0.923-1.38-1.077c-0.643-0.189-1.388-0.11-2.077-0.041
			c-2.226,0.226-2.858-0.726-2.298-2.507c1.723-1.64,4.966,1.027,5.964-2.61c-3.083,0-5.811,0-8.815,0
			c0,3.866-0.055,7.535,0.061,11.2c0.017,0.535,0.812,1.451,1.308,1.496c1.977,0.177,3.986,0.182,5.963,0.015
			c0.549-0.047,1.03-0.907,2.101-1.927c-2.745-0.126-4.597-0.211-6.583-0.303C362.201,416.018,362.201,415.061,362.201,413.721z
			 M498.433,419.46c2.557,0,4.829,0.063,7.093-0.049c0.51-0.025,0.989-0.662,1.482-1.017c-0.556-0.376-1.08-1.005-1.672-1.078
			c-1.33-0.163-2.693-0.051-4.23-0.051c0.07-1.405,0.118-2.352,0.169-3.363c0.616-0.069,1.006-0.089,1.386-0.16
			c1.444-0.27,2.887-0.555,4.329-0.835c-1.354-0.387-2.743-0.687-4.049-1.198c-0.68-0.267-1.212-0.906-1.812-1.378
			c0.623-0.547,1.164-1.324,1.89-1.579c0.802-0.281,1.822,0.089,2.652-0.152c0.605-0.176,1.057-0.882,2.158-1.877
			c-3.733,0-6.527,0-9.396,0C498.433,410.961,498.433,414.932,498.433,419.46z M468.384,419.077
			c-1.846-3.926-3.574-7.805-5.552-11.553c-0.25-0.475-2.494-0.616-2.652-0.311c-2.013,3.895-3.813,7.899-5.787,12.133
			c3.319,0.748,4.041-2.742,6.994-2.845C464.47,416.396,465.096,420.587,468.384,419.077z M438.445,409.052
			c5.578-0.981,5.578-0.981,5.521-2.405c-2.65,0-5.298,0-7.974,0c0,4.312,0,8.428,0,12.502c6.394,0.938,8.119,0.543,7.883-2.043
			c-1.808,0-3.645,0-5.648,0c0.085-1.278,0.147-2.228,0.223-3.37c1.499,0,2.79,0.082,4.063-0.037
			c0.571-0.053,1.105-0.507,1.656-0.778c-0.548-0.389-1.063-1.04-1.651-1.114c-1.332-0.169-2.699-0.054-4.071-0.054
			C438.445,410.525,438.445,409.772,438.445,409.052z M339.52,406.702c0,3.108-0.135,6.083,0.065,9.035
			c0.083,1.229-1.179,3.31,1.275,3.482c0.367,0.025,0.883-2.138,1.345-3.283c0.071-0.176,0.219-0.322,0.334-0.48
			c4.458-0.551,6.335-2.078,6.08-4.945C348.331,407.265,345.737,406.102,339.52,406.702z M237.832,417.301
			c0.065-1.42,0.112-2.44,0.158-3.434c2.155-0.131,3.967-0.24,5.779-0.35c0.048-0.409,0.096-0.819,0.144-1.229
			c-1.927-0.275-3.854-0.55-5.9-0.842c0-0.825,0-1.667,0-2.48c5.608-0.909,5.608-0.909,5.517-2.284c-2.655,0-5.301,0-8.005,0
			c0,4.272,0,8.334,0,12.363c5.54,1.086,8.044,0.588,8.104-1.745C241.853,417.301,240.077,417.301,237.832,417.301z
			 M285.496,406.677c-3.227,0-5.871,0-8.503,0c0,4.326,0,8.444,0,12.531c6.954,0.719,7.841,0.531,8.186-1.938
			c-1.888,0-3.739,0-5.663,0c0-1.317,0-2.342,0-3.673c2.031,0,3.869,0,6.352,0c-1.885-2.949-4.539-1.112-6.385-2.167
			c0-0.788,0-1.64,0-2.326C281.244,407.633,284.415,410.348,285.496,406.677z M475.503,406.27c1.727,4.437,3.124,8.166,4.66,11.838
			c0.238,0.57,1.113,1.218,1.684,1.209c0.573-0.009,1.418-0.68,1.653-1.259c1.494-3.684,2.853-7.422,4.256-11.143
			c-0.332-0.221-0.664-0.441-0.996-0.662c-3.884,1.141-2.674,6.094-4.873,8.203C479.126,412.479,481.182,407.023,475.503,406.27z
			 M266.378,406.136c-5.257,1.169-3.787,6.193-6.194,8.304c-2.583-2.035-1.013-7.277-6.332-8.21
			c1.68,4.346,3.024,7.981,4.522,11.553c0.279,0.665,1.183,1.496,1.783,1.482c0.613-0.013,1.482-0.855,1.761-1.531
			C263.39,414.157,264.713,410.518,266.378,406.136z M299.127,416.953c0-3.072-0.061-5.744,0.02-8.411
			c0.06-1.951-0.631-2.518-2.422-1.729c0,4.163,0,8.213,0,12.621c2.42,0,4.695,0.081,6.957-0.062
			c0.528-0.033,1.008-0.827,1.51-1.272c-0.57-0.382-1.105-1.013-1.716-1.096C302.212,416.834,300.909,416.953,299.127,416.953z"/>
		<path fill-rule="evenodd" clip-rule="evenodd" fill="#FFFFFF" d="M594.3,468.899c-0.02-50.254-0.046-100.509-0.058-150.763
			c-0.014-58.249-0.015-116.496-0.018-174.743c0-1.098,0.049-2.195,0.075-3.293c0.2,0.1,0.566,0.189,0.573,0.302
			c0.05,0.797,0.026,1.598,0.026,2.398c0,107.8,0.002,215.6-0.024,323.4C594.875,467.1,594.5,468,594.3,468.899z"/>
		<path fill-rule="evenodd" clip-rule="evenodd" fill="#FFFFFF" d="M306.132,214.451c-3.392-5.213-3.28-10.477,0.454-14.316
			c3.672-3.776,8.958-4.531,13.361-1.584c1.555,1.04,2.556,0.898,3.952-0.034c18.799-12.559,39.406-17.061,61.699-13.447
			c11.785,1.911,22.688,6.287,32.626,12.934c1.79,1.197,3.098,1.68,5.188,0.223c3.855-2.686,9.187-1.76,12.608,1.677
			c3.447,3.463,4.24,8.665,1.908,12.662c-0.445,0.765-0.967,1.486-1.207,1.852c2.917,3.55,5.897,6.768,8.412,10.315
			c7.212,10.177,6.398,20.318-2.597,28.831c-8.158,7.72-18.187,12.196-28.918,15.15c-1.031,0.284-2.184,0.176-3.279,0.176
			c-25.6,0.004-51.204,0.308-76.795-0.132c-13.877-0.238-26.063-5.878-36.042-15.495c-7.573-7.299-7.802-17.118-1.036-27.032
			C299.259,222.145,302.748,218.535,306.132,214.451z M336.222,249.449c5.81,0.067,10.606-4.553,10.686-10.291
			c0.081-5.852-4.747-10.767-10.576-10.767c-5.614,0-10.621,4.953-10.606,10.492C325.743,244.573,330.521,249.383,336.222,249.449z
			 M406.531,249.414c5.831,0.017,10.404-4.521,10.518-10.436c0.108-5.623-4.699-10.497-10.438-10.585
			c-5.671-0.087-10.582,4.68-10.674,10.359C395.842,244.646,400.564,249.398,406.531,249.414z"/>
		<path fill-rule="evenodd" clip-rule="evenodd" fill="#FFFFFF" d="M339.838,382.877c-3.542,0-6.792,0-10.352,0
			c-0.056-1.245-0.149-2.413-0.154-3.582c-0.03-6.396,0.066-12.796-0.09-19.189c-0.114-4.705-2.162-6.816-6.38-7.126
			c-4.13-0.304-7.195,1.855-7.741,6.193c-0.497,3.939-0.314,7.97-0.364,11.961c-0.048,3.865-0.011,7.73-0.011,11.75
			c-3.519,0-6.678,0-10.216,0c-0.077-1.043-0.217-2.086-0.221-3.129c-0.021-6.297,0.06-12.595-0.036-18.891
			c-0.072-4.808-1.812-7.151-5.433-7.77c-4.674-0.799-8.133,1.256-8.65,5.97c-0.597,5.438-0.457,10.959-0.593,16.445
			c-0.059,2.379-0.01,4.761-0.01,7.33c-3.524,0-6.754,0-10.142,0c-0.069-0.696-0.176-1.271-0.177-1.846
			c-0.01-11.886-0.007-23.771-0.007-35.866c3.459,0,6.714,0,10.099,0c0.127,0.902,0.249,1.772,0.415,2.948
			c7.555-5.374,14.875-5.165,21.815,0.78c2.379-1.261,4.59-2.913,7.073-3.663c9.708-2.931,20.667,0.521,21.126,14.215
			C340.051,367.164,339.838,374.936,339.838,382.877z"/>
		<path fill-rule="evenodd" clip-rule="evenodd" fill="#FFFFFF" d="M350.775,345.058c3.414,0,6.577,0,9.859,0
			c0.142,0.984,0.267,1.85,0.424,2.944c4.582-3.574,9.718-4.599,15.244-3.614c4.495,0.8,8.187,3.07,11.019,6.657
			c5.902,7.477,5.435,20.02-0.972,26.881c-6.493,6.954-16.382,7.764-25.329,1.823c0,5.105,0,10.006,0,15.143
			c-3.552,0-6.781,0-10.246,0C350.775,378.413,350.775,361.898,350.775,345.058z M370.718,374.643
			c6.134,0.048,10.432-4.305,10.464-10.598c0.032-6.267-4.199-10.668-10.362-10.777c-6.128-0.108-10.387,4.222-10.417,10.594
			C360.373,370.174,364.603,374.595,370.718,374.643z"/>
		<path fill-rule="evenodd" clip-rule="evenodd" fill="#FFFFFF" d="M224.231,345.481c-3.095,1.2-5.905,2.486-8.845,3.306
			c-0.815,0.227-2.278-0.699-3.001-1.496c-8.273-9.119-22.558-6.787-27.116,4.489c-2.888,7.145-0.138,15.403,6.542,19.646
			c6.517,4.14,14.735,3.063,20.088-2.972c1.77-1.995,3.204-2.463,5.549-1.261c2.1,1.076,4.395,1.769,6.62,2.637
			c-5.051,10.287-17.77,15.907-29.935,13.415c-11.297-2.314-20.443-12.757-20.993-23.97c-0.586-11.958,7.068-22.758,18.65-26.316
			C204.357,329.099,217.064,333.88,224.231,345.481z"/>
		<path fill-rule="evenodd" clip-rule="evenodd" fill="#FFFFFF" d="M543.369,382.878c-3.481,0-6.642,0-10.085,0
			c0-17.301,0-34.628,0-52.181c3.191,0,6.434,0,9.952,0c0,5.636,0,11.191,0,17.238c4.006-2.661,7.896-4.17,12.349-3.615
			c7.725,0.964,11.949,4.367,12.525,12.05c0.655,8.722,0.151,17.531,0.151,26.506c-3.254,0-6.51,0-10.142,0
			c-0.079-1-0.229-2.044-0.233-3.088c-0.029-6.3,0.041-12.602-0.053-18.899c-0.081-5.433-2.016-7.666-6.538-7.89
			c-4.409-0.218-7.355,2.244-7.745,7.291c-0.391,5.071-0.152,10.191-0.18,15.29C543.36,377.954,543.369,380.328,543.369,382.878z"/>
		<path fill-rule="evenodd" clip-rule="evenodd" fill="#FFFFFF" d="M449.372,368.895c1.275,1.377,2.314,3.181,3.873,4.045
			c3.798,2.104,10.151,3.27,14.752-1.274c1.104-1.09,2.026-1.288,3.365-0.396c1.904,1.268,3.933,2.347,6.215,3.687
			c-3.374,4.689-7.668,7.611-13.227,8.48c-8.437,1.318-15.94-0.442-21.528-7.376c-7.629-9.467-3.706-24.923,7.44-29.673
			c9.956-4.243,20.021-1.978,25.885,5.834c3.182,4.238,3.941,9.11,3.414,14.202c-0.064,0.624-1.598,1.554-2.462,1.566
			c-7.994,0.121-15.991,0.071-23.987,0.071c-1.058,0-2.114,0-3.172,0C449.751,368.34,449.562,368.617,449.372,368.895z
			 M450.117,360.292c6.179,0,12.117,0,18.082,0c-0.522-3.916-3.701-6.505-8.004-6.711
			C454.88,353.326,451.156,355.715,450.117,360.292z"/>
		<path fill-rule="evenodd" clip-rule="evenodd" fill="#FFFFFF" d="M249.981,383.816c-11.521-0.032-20.591-8.923-20.516-20.11
			c0.071-10.739,9.608-19.656,20.88-19.523c11.179,0.132,20.617,9.364,20.487,20.042C270.7,375.032,261.318,383.848,249.981,383.816
			z M239.703,363.852c-0.037,6.279,4.241,10.813,10.254,10.866c5.813,0.053,10.379-4.689,10.399-10.798
			c0.02-5.741-4.679-10.601-10.295-10.648C244.551,353.225,239.736,358.142,239.703,363.852z"/>
		<path fill-rule="evenodd" clip-rule="evenodd" fill="#FFFFFF" d="M412.865,341.86c-5.243,0-9.814,0-14.595,0
			c0-3.17,0-6.117,0-9.309c13.219,0,26.453,0,39.961,0c0,2.917,0,5.851,0,9.137c-4.541,0-9.185,0-14.211,0
			c0,13.864,0,27.391,0,41.139c-3.827,0-7.275,0-11.155,0C412.865,369.321,412.865,355.786,412.865,341.86z"/>
		<path fill-rule="evenodd" clip-rule="evenodd" fill="#FFFFFF" d="M525.38,355.443c-2.601,1.018-5.152,2.14-7.796,2.965
			c-0.67,0.209-1.883-0.298-2.425-0.872c-3.859-4.097-9.189-5.222-13.502-2.703c-4.237,2.475-6.145,7.926-4.486,12.823
			c1.66,4.903,6.427,7.984,11.874,6.767c2.8-0.627,5.255-2.798,8.646-4.712c1.144,0.438,3.367,1.276,5.579,2.143
			c0.621,0.244,1.21,0.57,1.8,0.852c-3.089,8.181-11.968,12.61-21.795,10.998c-8.927-1.464-16.603-9.624-17.006-18.077
			c-0.469-9.869,6.009-18.638,15.423-20.878C511.241,342.478,521.27,346.93,525.38,355.443z"/>
		<path fill-rule="evenodd" clip-rule="evenodd" fill="#FFFFFF" d="M321.147,282.104c7.369-0.031,13.051,5.632,13.08,13.038
			c0.028,7.034-5.9,12.913-12.992,12.885c-7.099-0.028-12.942-5.863-12.97-12.951C308.236,287.969,314.03,282.136,321.147,282.104z"
			/>
		<path fill-rule="evenodd" clip-rule="evenodd" fill="#FFFFFF" d="M427.711,280.945c7.103,0.118,12.773,5.825,12.768,12.848
			c-0.006,7.224-6.082,13.208-13.254,13.056c-7.119-0.152-12.823-6.094-12.714-13.244
			C414.621,286.413,420.448,280.824,427.711,280.945z"/>
		<path fill-rule="evenodd" clip-rule="evenodd" fill="#FFFFFF" d="M334.592,271.599c24.73,0,49.46,0,74.19,0
			C384.081,278.632,359.367,279.414,334.592,271.599z"/>
		<path fill-rule="evenodd" clip-rule="evenodd" fill="#FFFFFF" d="M518.147,406.857c2.886-1.284,3.622,0.777,4.649,2.316
			c1.04,1.559,2.063,3.129,3.171,4.809c1.44-2.411-0.938-5.934,1.701-7.656c0.368,0.109,0.736,0.221,1.105,0.331
			c0,4.149,0,8.299,0,12.9c-4.888-0.641-4.751-5.802-7.984-8.097c0,2.608,0,5.09,0,7.571c-0.31,0.196-0.618,0.394-0.928,0.59
			c-0.572-0.638-1.607-1.254-1.638-1.917C518.06,414.123,518.147,410.53,518.147,406.857z"/>
		<path fill-rule="evenodd" clip-rule="evenodd" fill="#FFFFFF" d="M321.576,406.329c3.838,0.039,6.994,3.177,6.854,6.813
			c-0.143,3.703-3.405,6.699-7.159,6.574c-3.683-0.122-6.593-3.088-6.611-6.739C314.64,409.181,317.65,406.287,321.576,406.329z
			 M321.536,417.262c2.432-0.046,4.261-2.02,4.153-4.481c-0.103-2.347-1.921-4.051-4.281-4.013
			c-2.269,0.036-4.192,1.924-4.223,4.143C317.154,415.25,319.209,417.305,321.536,417.262z"/>
		<path fill-rule="evenodd" clip-rule="evenodd" fill="#FFFFFF" d="M212.809,419.357c0-4.331,0-8.377,0-12.734
			c3.574-0.021,7.336-1.204,10.062,2.366c1.695,2.222,1.717,5.528,0.113,7.825C220.337,420.604,216.493,419.229,212.809,419.357z
			 M215.224,416.856c0.215,0.349,0.431,0.696,0.646,1.045c1.7-0.894,3.94-1.406,4.926-2.804c0.768-1.087,0.581-3.758-0.285-4.851
			c-0.991-1.252-3.201-1.539-5.288-2.415C215.224,411.508,215.224,414.183,215.224,416.856z"/>
		<path fill-rule="evenodd" clip-rule="evenodd" fill="#FFFFFF" d="M381.804,414.437c-0.06,1.329,0.005,2.525-0.219,3.664
			c-0.097,0.487-0.796,0.856-1.221,1.279c-0.405-0.446-1.148-0.885-1.16-1.341c-0.095-3.76-0.054-7.522-0.054-11.669
			c3.146,0.527,6.581-1.279,8.391,2.112c0.684,1.282-0.134,3.365-0.268,5.084c-0.26-0.028-0.521-0.056-0.781-0.083
			c0.732,1.807,1.465,3.613,2.248,5.545c-1.946,0.836-2.806,0.225-3.264-1.438C385.023,415.938,384.498,414.261,381.804,414.437z
			 M382.749,407.827c-0.494,0.386-0.988,0.771-1.483,1.156c0.563,1.115,1.125,2.23,1.688,3.346c0.85-0.632,1.7-1.264,2.55-1.896
			C384.585,409.564,383.668,408.696,382.749,407.827z"/>
		<path fill-rule="evenodd" clip-rule="evenodd" fill="#FFFFFF" d="M421.562,413.847c-1.766,0-3.128,0-4.916,0
			c0,1.325,0.158,2.604-0.063,3.814c-0.119,0.648-0.889,1.179-1.365,1.763c-0.429-0.533-1.213-1.056-1.229-1.602
			c-0.11-3.667-0.058-7.338-0.058-10.968c2.488-0.31,2.488-0.31,2.931,4.477c1.369,0.061,2.79,0.122,4.209,0.185
			c0.4-1.787,0.719-3.36,1.162-4.898c0.037-0.13,0.916-0.018,1.795-0.018c0,3.856,0.039,7.71-0.056,11.56
			c-0.011,0.416-0.802,0.812-1.229,1.218c-0.394-0.455-1.063-0.874-1.126-1.37C421.454,416.739,421.562,415.438,421.562,413.847z"/>
		<path fill-rule="evenodd" clip-rule="evenodd" fill="#FFFFFF" d="M362.201,413.721c0,1.34,0,2.297,0,3.422
			c1.986,0.092,3.838,0.177,6.583,0.303c-1.071,1.02-1.552,1.88-2.101,1.927c-1.977,0.167-3.987,0.162-5.963-0.015
			c-0.496-0.045-1.291-0.961-1.308-1.496c-0.115-3.665-0.061-7.334-0.061-11.2c3.004,0,5.732,0,8.815,0
			c-0.999,3.638-4.242,0.971-5.964,2.61c-0.561,1.781,0.072,2.732,2.298,2.507c0.689-0.069,1.435-0.148,2.077,0.041
			c0.521,0.154,0.924,0.703,1.38,1.077c-0.446,0.274-0.876,0.751-1.341,0.786C365.244,413.788,363.857,413.721,362.201,413.721z"/>
		<path fill-rule="evenodd" clip-rule="evenodd" fill="#FFFFFF" d="M498.433,419.46c0-4.528,0-8.499,0-12.737
			c2.869,0,5.663,0,9.396,0c-1.102,0.995-1.553,1.701-2.158,1.877c-0.83,0.241-1.851-0.129-2.652,0.152
			c-0.726,0.255-1.267,1.032-1.89,1.579c0.6,0.472,1.132,1.111,1.812,1.378c1.306,0.512,2.694,0.812,4.049,1.198
			c-1.442,0.28-2.885,0.565-4.329,0.835c-0.38,0.071-0.77,0.091-1.386,0.16c-0.051,1.012-0.099,1.958-0.169,3.363
			c1.537,0,2.9-0.112,4.23,0.051c0.592,0.073,1.116,0.702,1.672,1.078c-0.493,0.354-0.973,0.991-1.482,1.017
			C503.262,419.522,500.99,419.46,498.433,419.46z"/>
		<path fill-rule="evenodd" clip-rule="evenodd" fill="#FFFFFF" d="M468.384,419.077c-3.288,1.51-3.914-2.682-6.997-2.575
			c-2.953,0.103-3.675,3.593-6.994,2.845c1.974-4.233,3.774-8.238,5.787-12.133c0.158-0.306,2.402-0.164,2.652,0.311
			C464.81,411.272,466.538,415.151,468.384,419.077z M463.421,414.601c-0.719-1.517-1.261-2.66-2.022-4.268
			c-0.773,1.724-1.285,2.862-1.915,4.268C460.858,414.601,461.888,414.601,463.421,414.601z"/>
		<path fill-rule="evenodd" clip-rule="evenodd" fill="#FFFFFF" d="M438.445,409.052c0,0.721,0,1.474,0,2.7
			c1.372,0,2.739-0.115,4.071,0.054c0.588,0.074,1.104,0.726,1.651,1.114c-0.551,0.271-1.085,0.726-1.656,0.778
			c-1.272,0.119-2.563,0.037-4.063,0.037c-0.075,1.143-0.138,2.092-0.223,3.37c2.004,0,3.841,0,5.648,0
			c0.236,2.586-1.489,2.981-7.883,2.043c0-4.074,0-8.19,0-12.502c2.676,0,5.323,0,7.974,0
			C444.023,408.07,444.023,408.07,438.445,409.052z"/>
		<path fill-rule="evenodd" clip-rule="evenodd" fill="#FFFFFF" d="M339.52,406.702c6.217-0.601,8.811,0.563,9.1,3.809
			c0.256,2.867-1.621,4.395-6.081,4.945c-0.114,0.158-0.262,0.305-0.333,0.48c-0.462,1.146-0.978,3.309-1.345,3.283
			c-2.454-0.173-1.192-2.253-1.275-3.482C339.385,412.785,339.52,409.811,339.52,406.702z M342.039,412.837
			c2.177,0.579,3.714,0.269,3.859-1.8c0.162-2.295-1.494-2.647-3.656-2.448C342.176,409.979,342.112,411.314,342.039,412.837z"/>
		<path fill-rule="evenodd" clip-rule="evenodd" fill="#FFFFFF" d="M237.832,417.301c2.245,0,4.021,0,5.797,0
			c-0.061,2.333-2.565,2.831-8.104,1.745c0-4.029,0-8.091,0-12.363c2.704,0,5.351,0,8.005,0c0.091,1.375,0.091,1.375-5.517,2.284
			c0,0.813,0,1.655,0,2.48c2.047,0.292,3.974,0.566,5.9,0.842c-0.048,0.409-0.096,0.819-0.144,1.229
			c-1.812,0.109-3.624,0.219-5.779,0.35C237.945,414.86,237.898,415.881,237.832,417.301z"/>
		<path fill-rule="evenodd" clip-rule="evenodd" fill="#FFFFFF" d="M285.496,406.677c-1.081,3.671-4.252,0.956-6.014,2.427
			c0,0.687,0,1.538,0,2.326c1.847,1.055,4.5-0.782,6.385,2.167c-2.483,0-4.321,0-6.352,0c0,1.331,0,2.355,0,3.673
			c1.924,0,3.775,0,5.663,0c-0.345,2.47-1.231,2.657-8.186,1.938c0-4.087,0-8.205,0-12.531
			C279.625,406.677,282.269,406.677,285.496,406.677z"/>
		<path fill-rule="evenodd" clip-rule="evenodd" fill="#FFFFFF" d="M475.503,406.27c5.679,0.754,3.623,6.21,6.384,8.187
			c2.199-2.109,0.989-7.063,4.873-8.203c0.332,0.221,0.664,0.441,0.996,0.662c-1.403,3.721-2.762,7.459-4.256,11.143
			c-0.235,0.579-1.08,1.25-1.653,1.259c-0.57,0.009-1.445-0.639-1.684-1.209C478.627,414.436,477.23,410.706,475.503,406.27z"/>
		<path fill-rule="evenodd" clip-rule="evenodd" fill="#FFFFFF" d="M266.378,406.136c-1.665,4.382-2.987,8.021-4.461,11.598
			c-0.278,0.676-1.148,1.519-1.761,1.531c-0.6,0.014-1.503-0.817-1.783-1.482c-1.498-3.571-2.842-7.207-4.522-11.553
			c5.319,0.933,3.749,6.175,6.332,8.21C262.591,412.329,261.12,407.305,266.378,406.136z"/>
		<path fill-rule="evenodd" clip-rule="evenodd" fill="#FFFFFF" d="M299.127,416.953c1.783,0,3.085-0.119,4.349,0.052
			c0.61,0.083,1.146,0.714,1.716,1.096c-0.502,0.445-0.982,1.239-1.51,1.272c-2.262,0.143-4.537,0.062-6.957,0.062
			c0-4.408,0-8.458,0-12.621c1.791-0.789,2.481-0.223,2.422,1.729C299.066,411.209,299.127,413.881,299.127,416.953z"/>
		<path fill-rule="evenodd" clip-rule="evenodd" d="M336.222,249.449c-5.701-0.065-10.479-4.876-10.496-10.565
			c-0.015-5.539,4.992-10.491,10.606-10.492c5.829,0,10.657,4.915,10.576,10.767C346.829,244.896,342.032,249.516,336.222,249.449z"
			/>
		<path fill-rule="evenodd" clip-rule="evenodd" d="M406.531,249.414c-5.968-0.016-10.689-4.768-10.595-10.662
			c0.092-5.679,5.003-10.447,10.674-10.359c5.739,0.088,10.547,4.962,10.438,10.585
			C416.936,244.893,412.363,249.431,406.531,249.414z"/>
		<path fill-rule="evenodd" clip-rule="evenodd" d="M370.718,374.643c-6.114-0.048-10.344-4.469-10.314-10.781
			c0.029-6.372,4.288-10.702,10.417-10.594c6.163,0.109,10.395,4.511,10.362,10.777C381.15,370.338,376.852,374.69,370.718,374.643z
			"/>
		<path fill-rule="evenodd" clip-rule="evenodd" d="M450.117,360.292c1.038-4.577,4.763-6.966,10.078-6.711
			c4.303,0.206,7.481,2.795,8.004,6.711C462.235,360.292,456.296,360.292,450.117,360.292z"/>
		<path fill-rule="evenodd" clip-rule="evenodd" d="M239.703,363.852c0.033-5.71,4.848-10.627,10.359-10.58
			c5.616,0.048,10.315,4.907,10.295,10.648c-0.021,6.108-4.587,10.851-10.399,10.798
			C243.944,374.664,239.666,370.131,239.703,363.852z"/>
		<path fill-rule="evenodd" clip-rule="evenodd" d="M321.536,417.262c-2.328,0.043-4.382-2.012-4.351-4.352
			c0.03-2.219,1.954-4.106,4.223-4.143c2.36-0.038,4.178,1.666,4.281,4.013C325.798,415.242,323.969,417.216,321.536,417.262z"/>
		<path fill-rule="evenodd" clip-rule="evenodd" d="M215.224,416.856c0-2.674,0-5.349,0-9.024c2.086,0.876,4.296,1.163,5.288,2.415
			c0.866,1.093,1.053,3.764,0.285,4.851c-0.986,1.397-3.226,1.91-4.926,2.804C215.656,417.553,215.44,417.205,215.224,416.856z"/>
		<path fill-rule="evenodd" clip-rule="evenodd" d="M382.749,407.827c0.919,0.869,1.836,1.737,2.754,2.606
			c-0.85,0.632-1.7,1.264-2.55,1.896c-0.563-1.115-1.125-2.23-1.688-3.346C381.761,408.598,382.255,408.213,382.749,407.827z"/>
		<path fill-rule="evenodd" clip-rule="evenodd" d="M463.421,414.601c-1.533,0-2.563,0-3.938,0c0.63-1.405,1.142-2.544,1.915-4.268
			C462.16,411.94,462.702,413.084,463.421,414.601z"/>
		<path fill-rule="evenodd" clip-rule="evenodd" d="M342.039,412.837c0.073-1.522,0.137-2.858,0.203-4.248
			c2.163-0.199,3.818,0.153,3.656,2.448C345.753,413.105,344.216,413.416,342.039,412.837z"/>
	</g>
</g>
<g id="Capa_4_copia">
	<path fill-rule="evenodd" clip-rule="evenodd" fill="#FFFFFF" d="M306.132,214.451c-3.392-5.213-3.28-10.477,0.454-14.316
		c3.672-3.776,8.958-4.531,13.361-1.584c1.555,1.04,2.556,0.898,3.952-0.034c18.799-12.559,39.406-17.061,61.699-13.447
		c11.785,1.911,22.688,6.287,32.626,12.934c1.79,1.197,3.098,1.68,5.188,0.223c3.855-2.686,9.187-1.76,12.608,1.677
		c3.447,3.463,4.24,8.665,1.908,12.662c-0.445,0.765-0.967,1.486-1.207,1.852c2.917,3.55,5.897,6.768,8.412,10.315
		c7.212,10.177,6.398,20.318-2.597,28.831c-8.158,7.72-18.187,12.196-28.918,15.15c-1.031,0.284-2.184,0.176-3.279,0.176
		c-25.6,0.004-51.204,0.308-76.795-0.132c-13.877-0.238-26.063-5.878-36.042-15.495c-7.573-7.299-7.802-17.118-1.036-27.032
		C299.259,222.145,302.748,218.535,306.132,214.451z M336.222,249.449c5.81,0.067,10.606-4.553,10.686-10.291
		c0.081-5.852-4.747-10.767-10.576-10.767c-5.614,0-10.621,4.953-10.606,10.492C325.743,244.573,330.521,249.383,336.222,249.449z
		 M406.531,249.414c5.831,0.017,10.404-4.521,10.518-10.436c0.108-5.623-4.699-10.497-10.438-10.585
		c-5.671-0.087-10.582,4.68-10.674,10.359C395.842,244.646,400.564,249.398,406.531,249.414z"/>
	<path fill-rule="evenodd" clip-rule="evenodd" fill="#FFFFFF" d="M339.838,382.877c-3.542,0-6.792,0-10.352,0
		c-0.056-1.245-0.149-2.413-0.154-3.582c-0.03-6.396,0.066-12.796-0.09-19.189c-0.114-4.705-2.162-6.816-6.38-7.126
		c-4.13-0.304-7.195,1.855-7.741,6.193c-0.497,3.939-0.314,7.97-0.364,11.961c-0.048,3.865-0.011,7.73-0.011,11.75
		c-3.519,0-6.678,0-10.216,0c-0.077-1.043-0.217-2.086-0.221-3.129c-0.021-6.297,0.06-12.595-0.036-18.891
		c-0.072-4.808-1.812-7.151-5.433-7.77c-4.674-0.799-8.133,1.256-8.65,5.97c-0.597,5.438-0.457,10.959-0.593,16.445
		c-0.059,2.379-0.01,4.761-0.01,7.33c-3.524,0-6.754,0-10.142,0c-0.069-0.696-0.176-1.271-0.177-1.846
		c-0.01-11.886-0.007-23.771-0.007-35.866c3.459,0,6.714,0,10.099,0c0.127,0.902,0.249,1.772,0.415,2.948
		c7.555-5.374,14.875-5.165,21.815,0.78c2.379-1.261,4.59-2.913,7.073-3.663c9.708-2.931,20.667,0.521,21.126,14.215
		C340.051,367.164,339.838,374.936,339.838,382.877z"/>
	<path fill-rule="evenodd" clip-rule="evenodd" fill="#FFFFFF" d="M350.775,345.058c3.414,0,6.577,0,9.859,0
		c0.142,0.984,0.267,1.85,0.424,2.944c4.582-3.574,9.718-4.599,15.244-3.614c4.495,0.8,8.187,3.07,11.019,6.657
		c5.902,7.477,5.435,20.02-0.972,26.881c-6.493,6.954-16.382,7.764-25.329,1.823c0,5.105,0,10.006,0,15.143
		c-3.552,0-6.781,0-10.246,0C350.775,378.413,350.775,361.898,350.775,345.058z M370.718,374.643
		c6.134,0.048,10.432-4.305,10.464-10.598c0.032-6.267-4.199-10.668-10.362-10.777c-6.128-0.108-10.387,4.222-10.417,10.594
		C360.373,370.174,364.603,374.595,370.718,374.643z"/>
	<path fill-rule="evenodd" clip-rule="evenodd" fill="#FFFFFF" d="M224.231,345.481c-3.095,1.2-5.905,2.486-8.845,3.306
		c-0.815,0.227-2.278-0.699-3.001-1.496c-8.273-9.119-22.558-6.787-27.116,4.489c-2.888,7.145-0.138,15.403,6.542,19.646
		c6.517,4.14,14.735,3.063,20.088-2.972c1.77-1.995,3.204-2.463,5.549-1.261c2.1,1.076,4.395,1.769,6.62,2.637
		c-5.051,10.287-17.77,15.907-29.935,13.415c-11.297-2.314-20.443-12.757-20.993-23.97c-0.586-11.958,7.068-22.758,18.65-26.316
		C204.357,329.099,217.064,333.88,224.231,345.481z"/>
	<path fill-rule="evenodd" clip-rule="evenodd" fill="#FFFFFF" d="M543.369,382.878c-3.481,0-6.642,0-10.085,0
		c0-17.301,0-34.628,0-52.181c3.191,0,6.434,0,9.952,0c0,5.636,0,11.191,0,17.238c4.006-2.661,7.896-4.17,12.349-3.615
		c7.725,0.964,11.949,4.367,12.525,12.05c0.655,8.722,0.151,17.531,0.151,26.506c-3.254,0-6.51,0-10.142,0
		c-0.079-1-0.229-2.044-0.233-3.088c-0.029-6.3,0.041-12.602-0.053-18.899c-0.081-5.433-2.016-7.666-6.538-7.89
		c-4.409-0.218-7.355,2.244-7.745,7.291c-0.391,5.071-0.152,10.191-0.18,15.29C543.36,377.954,543.369,380.328,543.369,382.878z"/>
	<path fill-rule="evenodd" clip-rule="evenodd" fill="#FFFFFF" d="M449.372,368.895c1.275,1.377,2.314,3.181,3.873,4.045
		c3.798,2.104,10.151,3.27,14.752-1.274c1.104-1.09,2.026-1.288,3.365-0.396c1.904,1.268,3.933,2.347,6.215,3.687
		c-3.374,4.689-7.668,7.611-13.227,8.48c-8.437,1.318-15.94-0.442-21.528-7.376c-7.629-9.467-3.706-24.923,7.44-29.673
		c9.956-4.243,20.021-1.978,25.885,5.834c3.182,4.238,3.941,9.11,3.414,14.202c-0.064,0.624-1.598,1.554-2.462,1.566
		c-7.994,0.121-15.991,0.071-23.987,0.071c-1.058,0-2.114,0-3.172,0C449.751,368.34,449.562,368.617,449.372,368.895z
		 M450.117,360.292c6.179,0,12.117,0,18.082,0c-0.522-3.916-3.701-6.505-8.004-6.711
		C454.88,353.326,451.156,355.715,450.117,360.292z"/>
	<path fill-rule="evenodd" clip-rule="evenodd" fill="#FFFFFF" d="M249.981,383.816c-11.521-0.032-20.591-8.923-20.516-20.11
		c0.071-10.739,9.608-19.656,20.88-19.523c11.179,0.132,20.617,9.364,20.487,20.042C270.7,375.032,261.318,383.848,249.981,383.816z
		 M239.703,363.852c-0.037,6.279,4.241,10.813,10.254,10.866c5.813,0.053,10.379-4.689,10.399-10.798
		c0.02-5.741-4.679-10.601-10.295-10.648C244.551,353.225,239.736,358.142,239.703,363.852z"/>
	<path fill-rule="evenodd" clip-rule="evenodd" fill="#FFFFFF" d="M412.865,341.86c-5.243,0-9.814,0-14.595,0
		c0-3.17,0-6.117,0-9.309c13.219,0,26.453,0,39.961,0c0,2.917,0,5.851,0,9.137c-4.541,0-9.185,0-14.211,0
		c0,13.864,0,27.391,0,41.139c-3.827,0-7.275,0-11.155,0C412.865,369.321,412.865,355.786,412.865,341.86z"/>
	<path fill-rule="evenodd" clip-rule="evenodd" fill="#FFFFFF" d="M525.38,355.443c-2.601,1.018-5.152,2.14-7.796,2.965
		c-0.67,0.209-1.883-0.298-2.425-0.872c-3.859-4.097-9.189-5.222-13.502-2.703c-4.237,2.475-6.145,7.926-4.486,12.823
		c1.66,4.903,6.427,7.984,11.874,6.767c2.8-0.627,5.255-2.798,8.646-4.712c1.144,0.438,3.367,1.276,5.579,2.143
		c0.621,0.244,1.21,0.57,1.8,0.852c-3.089,8.181-11.968,12.61-21.795,10.998c-8.927-1.464-16.603-9.624-17.006-18.077
		c-0.469-9.869,6.009-18.638,15.423-20.878C511.241,342.478,521.27,346.93,525.38,355.443z"/>
	<path fill-rule="evenodd" clip-rule="evenodd" fill="#FFFFFF" d="M321.147,282.104c7.369-0.031,13.051,5.632,13.08,13.038
		c0.028,7.034-5.9,12.913-12.992,12.885c-7.099-0.028-12.942-5.863-12.97-12.951C308.236,287.969,314.03,282.136,321.147,282.104z"
		/>
	<path fill-rule="evenodd" clip-rule="evenodd" fill="#FFFFFF" d="M427.711,280.945c7.103,0.118,12.773,5.825,12.768,12.848
		c-0.006,7.224-6.082,13.208-13.254,13.056c-7.119-0.152-12.823-6.094-12.714-13.244
		C414.621,286.413,420.448,280.824,427.711,280.945z"/>
	<path fill-rule="evenodd" clip-rule="evenodd" fill="#FFFFFF" d="M334.592,271.599c24.73,0,49.46,0,74.19,0
		C384.081,278.632,359.367,279.414,334.592,271.599z"/>
	<path fill="#FFFFFF" stroke="#F9F9F9" d="M224.171,412.731c0,0.62-0.059,1.214-0.174,1.781c-0.116,0.566-0.303,1.095-0.561,1.582
		c-0.256,0.488-0.59,0.932-0.999,1.331c-0.41,0.399-0.912,0.74-1.506,1.023c-0.594,0.284-1.284,0.503-2.071,0.658
		c-0.787,0.155-1.682,0.232-2.686,0.232h-3.372v-12.93h4.059c2.456,0,4.289,0.52,5.497,1.559
		C223.567,409.007,224.171,410.595,224.171,412.731z M221.92,412.86c0-0.917-0.105-1.691-0.313-2.325
		c-0.209-0.633-0.526-1.144-0.951-1.533c-0.426-0.389-0.959-0.671-1.602-0.846c-0.642-0.175-1.397-0.262-2.264-0.262h-1.842v9.922
		h1.602C220.129,417.816,221.92,416.164,221.92,412.86z"/>
	<path fill="#FFFFFF" stroke="#FFFFFF" d="M242.916,419.165h-7.391v-12.93h7.391v1.484h-5.62v4.006h5.401v1.484h-5.401v4.451h5.62
		V419.165z"/>
	<path fill="#FFFFFF" stroke="#FFFFFF" d="M265.675,406.235l-4.417,12.93h-2.387l-4.317-12.93h2l2.805,8.716l0.796,2.552
		l0.815-2.552l2.815-8.716H265.675z"/>
	<path fill="#FFFFFF" stroke="#FFFFFF" d="M284.627,419.165h-7.391v-12.93h7.391v1.484h-5.62v4.006h5.401v1.484h-5.401v4.451h5.62
		V419.165z"/>
	<path fill="#FFFFFF" stroke="#FFFFFF" d="M304.698,419.165h-7.48v-12.93h1.8v11.426h5.68V419.165z"/>
	<path fill="#FFFFFF" stroke="#FFFFFF" d="M328.43,412.616c0,1.161-0.188,2.163-0.564,3.007c-0.375,0.845-0.883,1.542-1.521,2.093
		c-0.639,0.551-1.385,0.96-2.242,1.227c-0.855,0.268-1.758,0.4-2.709,0.4c-1.14,0-2.134-0.149-2.98-0.45
		c-0.846-0.3-1.548-0.733-2.105-1.301c-0.556-0.566-0.97-1.258-1.242-2.072c-0.271-0.814-0.407-1.732-0.407-2.755
		c0-1.147,0.186-2.144,0.557-2.987c0.372-0.845,0.876-1.542,1.515-2.093c0.638-0.551,1.382-0.959,2.234-1.227
		c0.851-0.267,1.751-0.4,2.702-0.4c1.141,0,2.134,0.151,2.981,0.455c0.847,0.303,1.55,0.736,2.112,1.301
		c0.561,0.563,0.98,1.251,1.256,2.063C328.292,410.688,328.43,411.601,328.43,412.616z M325.918,412.745
		c0-0.759-0.079-1.453-0.237-2.083c-0.159-0.63-0.415-1.172-0.768-1.627c-0.354-0.455-0.809-0.808-1.365-1.059
		c-0.557-0.251-1.229-0.376-2.017-0.376c-0.761,0-1.415,0.134-1.963,0.4c-0.547,0.268-0.998,0.63-1.351,1.089
		c-0.353,0.458-0.615,0.995-0.787,1.612c-0.172,0.616-0.258,1.271-0.258,1.964c0,0.765,0.082,1.462,0.245,2.092
		c0.163,0.63,0.419,1.171,0.768,1.622c0.348,0.452,0.799,0.804,1.351,1.054c0.553,0.251,1.218,0.376,1.997,0.376
		c0.76,0,1.417-0.134,1.969-0.4c0.552-0.268,1.007-0.63,1.364-1.088c0.358-0.459,0.623-0.994,0.795-1.607
		C325.832,414.1,325.918,413.444,325.918,412.745z"/>
	<path fill="#FFFFFF" stroke="#FFFFFF" d="M348.349,410.192c0,0.527-0.099,1.051-0.298,1.568c-0.199,0.518-0.507,0.98-0.925,1.39
		c-0.418,0.409-0.952,0.74-1.602,0.994s-1.426,0.381-2.328,0.381h-1.611v4.64h-1.771v-12.93h3.66c0.643,0,1.26,0.071,1.85,0.213
		c0.59,0.142,1.109,0.371,1.557,0.688c0.447,0.316,0.804,0.726,1.069,1.227C348.217,408.863,348.349,409.474,348.349,410.192z
		 M346.509,410.271c0-0.831-0.274-1.467-0.821-1.909c-0.547-0.441-1.312-0.663-2.293-0.663h-1.81v5.322h1.651
		c1.048,0,1.855-0.228,2.422-0.683S346.509,411.195,346.509,410.271z"/>
	<path fill="#FFFFFF" stroke="#FFFFFF" d="M367.757,419.165h-7.391v-12.93h7.391v1.484h-5.62v4.006h5.401v1.484h-5.401v4.451h5.62
		V419.165z"/>
	<path fill="#FFFFFF" stroke="#FFFFFF" d="M388.323,418.987h-1.999l-1.94-4.135c-0.146-0.316-0.295-0.579-0.447-0.787
		c-0.152-0.207-0.316-0.372-0.492-0.494s-0.368-0.209-0.576-0.263c-0.209-0.053-0.443-0.079-0.702-0.079h-0.835v5.758h-1.771v-12.93
		h3.482c0.756,0,1.405,0.083,1.949,0.247c0.543,0.165,0.99,0.396,1.338,0.692c0.348,0.297,0.604,0.655,0.766,1.074
		s0.244,0.882,0.244,1.39c0,0.402-0.061,0.783-0.18,1.143s-0.297,0.686-0.531,0.979c-0.236,0.293-0.527,0.547-0.876,0.762
		c-0.349,0.214-0.747,0.374-1.198,0.479c0.364,0.125,0.674,0.345,0.93,0.658s0.516,0.73,0.781,1.251L388.323,418.987z
		 M385.488,409.609c0-0.692-0.217-1.21-0.651-1.554c-0.434-0.343-1.046-0.514-1.835-0.514h-1.671v4.273h1.432
		c0.418,0,0.795-0.048,1.129-0.144c0.336-0.096,0.621-0.237,0.855-0.426c0.236-0.188,0.418-0.418,0.547-0.692
		C385.423,410.28,385.488,409.965,385.488,409.609z"/>
	<path fill="#FFFFFF" stroke="#FFFFFF" d="M423.478,418.987h-1.771v-5.936h-5.461v5.936h-1.771v-12.93h1.771v5.471h5.461v-5.471
		h1.771V418.987z"/>
	<path fill="#FFFFFF" stroke="#FFFFFF" d="M443.775,418.987h-7.391v-12.93h7.391v1.484h-5.62v4.006h5.401v1.484h-5.401v4.451h5.62
		V418.987z"/>
	<path fill="#FFFFFF" stroke="#FFFFFF" d="M466.738,419.014h-1.93l-0.906-2.819h-5.41l-0.916,2.819h-1.84l4.316-12.93h2.428
		L466.738,419.014z M463.396,414.621l-2.199-6.915l-2.197,6.915H463.396z"/>
	<path fill="#FFFFFF" stroke="#FFFFFF" d="M487.19,406.168l-4.416,12.93h-2.387l-4.316-12.93h1.998l2.805,8.716l0.797,2.552
		l0.816-2.552l2.814-8.716H487.19z"/>
	<path fill="#FFFFFF" stroke="#FFFFFF" d="M505.823,419.165h-7.391v-12.93h7.391v1.484h-5.62v4.006h5.401v1.484h-5.401v4.451h5.62
		V419.165z"/>
	<path fill="#FFFFFF" stroke="#FFFFFF" d="M527.87,418.987h-2.308l-3.79-8.063l-1.094-2.592v6.52v4.135h-1.651v-12.93h2.278
		l3.61,7.637l1.303,2.958v-6.925v-3.67h1.651V418.987z"/>
</g>
</svg>
